999
dxfrw 0.6.3
  0
SECTION
  2
HEADER
  9
$ACADVER
  1
AC1021
  9
$DWGCODEPAGE
  3
ANSI_1252
  9
$INSBASE
 10
0
 20
0
 30
0
  9
$EXTMIN
 10
-33.125
 20
-26.6666666666669
 30
0
  9
$EXTMAX
 10
161.25
 20
133.125
 30
0
  9
$LIMMIN
 10
0
 20
0
  9
$LIMMAX
 10
420
 20
297
  9
$ORTHOMODE
 70
    0
  9
$REGENMODE
 70
    1
  9
$FILLMODE
 70
    1
  9
$QTEXTMODE
 70
    0
  9
$MIRRTEXT
 70
    0
  9
$LTSCALE
 40
1
  9
$ATTMODE
 70
    0
  9
$TEXTSIZE
 40
2.5
  9
$TRACEWID
 40
15.68
  9
$TEXTSTYLE
  7
STANDARD
  9
$CLAYER
  8
Medidas
  9
$CELTYPE
  6
BYLAYER
  9
$CECOLOR
 62
  256
  9
$CELTSCALE
 40
1
  9
$DISPSILH
 70
    0
  9
$DIMSCALE
 40
1
  9
$DIMASZ
 40
2.5
  9
$DIMEXO
 40
0.625
  9
$DIMDLI
 40
3.75
  9
$DIMRND
 40
0
  9
$DIMDLE
 40
0
  9
$DIMEXE
 40
1.25
  9
$DIMTP
 40
0
  9
$DIMTM
 40
0
  9
$DIMTXT
 40
2.5
  9
$DIMCEN
 40
2.5
  9
$DIMTSZ
 40
0
  9
$DIMTOL
 70
    0
  9
$DIMLIM
 70
    0
  9
$DIMTIH
 70
    0
  9
$DIMTOH
 70
    0
  9
$DIMSE1
 70
    0
  9
$DIMSE2
 70
    0
  9
$DIMTAD
 70
    1
  9
$DIMZIN
 70
    1
  9
$DIMBLK
  1

  9
$DIMASO
 70
    1
  9
$DIMSHO
 70
    1
  9
$DIMPOST
  1

  9
$DIMAPOST
  1

  9
$DIMALT
 70
    0
  9
$DIMALTD
 70
    3
  9
$DIMALTF
 40
0.03937
  9
$DIMLFAC
 40
1
  9
$DIMTOFL
 70
    1
  9
$DIMTVP
 40
0
  9
$DIMTIX
 70
    0
  9
$DIMSOXD
 70
    0
  9
$DIMSAH
 70
    0
  9
$DIMBLK1
  1

  9
$DIMBLK2
  1

  9
$DIMSTYLE
  2
STANDARD
  9
$DIMCLRD
 70
    0
  9
$DIMCLRE
 70
    0
  9
$DIMCLRT
 70
    0
  9
$DIMTFAC
 40
1
  9
$DIMGAP
 40
0.625
  9
$DIMJUST
 70
    0
  9
$DIMSD1
 70
    0
  9
$DIMSD2
 70
    0
  9
$DIMTOLJ
 70
    0
  9
$DIMTZIN
 70
    8
  9
$DIMALTZ
 70
    0
  9
$DIMALTTZ
 70
    0
  9
$DIMUPT
 70
    0
  9
$DIMDEC
 70
    2
  9
$DIMTDEC
 70
    2
  9
$DIMALTU
 70
    2
  9
$DIMALTTD
 70
    3
  9
$DIMTXSTY
  7
standard
  9
$DIMAUNIT
 70
    0
  9
$DIMADEC
 70
    2
  9
$DIMALTRND
 40
0
  9
$DIMAZIN
 70
    0
  9
$DIMDSEP
 70
    0
  9
$DIMATFIT
 70
    3
  9
$DIMFRAC
 70
    0
  9
$DIMLDRBLK
  1
STANDARD
  9
$DIMLUNIT
 70
    2
  9
$DIMLWD
 70
   -2
  9
$DIMLWE
 70
   -2
  9
$DIMTMOVE
 70
    0
  9
$DIMFXL
 40
1
  9
$DIMFXLON
 70
    0
  9
$DIMJOGANG
 40
0.7854
  9
$DIMTFILL
 70
    0
  9
$DIMTFILLCLR
 70
    0
  9
$DIMARCSYM
 70
    0
  9
$DIMLTYPE
  6

  9
$DIMLTEX1
  6

  9
$DIMLTEX2
  6

  9
$LUNITS
 70
    2
  9
$LUPREC
 70
    3
  9
$SKETCHINC
 40
1
  9
$FILLETRAD
 40
0
  9
$AUNITS
 70
    0
  9
$AUPREC
 70
    2
  9
$MENU
  1
.
  9
$ELEVATION
 40
0
  9
$PELEVATION
 40
0
  9
$THICKNESS
 40
0
  9
$LIMCHECK
 70
    0
  9
$CHAMFERA
 40
0
  9
$CHAMFERB
 40
0
  9
$CHAMFERC
 40
0
  9
$CHAMFERD
 40
0
  9
$SKPOLY
 70
    0
  9
$USRTIMER
 70
    1
  9
$ANGBASE
 50
0
  9
$ANGDIR
 70
    0
  9
$PDMODE
 70
   34
  9
$PDSIZE
 40
0
  9
$PLINEWID
 40
0
  9
$SPLFRAME
 70
    0
  9
$SPLINETYPE
 70
    2
  9
$SPLINESEGS
 70
    8
  9
$HANDSEED
  5
20000
  9
$SURFTAB1
 70
    6
  9
$SURFTAB2
 70
    6
  9
$SURFTYPE
 70
    6
  9
$SURFU
 70
    6
  9
$SURFV
 70
    6
  9
$UCSBASE
  2

  9
$UCSNAME
  2

  9
$UCSORG
 10
0
 20
0
 30
0
  9
$UCSXDIR
 10
1
 20
0
 30
0
  9
$UCSYDIR
 10
0
 20
1
 30
0
  9
$UCSORTHOREF
  2

  9
$UCSORTHOVIEW
 70
    0
  9
$UCSORGTOP
 10
0
 20
0
 30
0
  9
$UCSORGBOTTOM
 10
0
 20
0
 30
0
  9
$UCSORGLEFT
 10
0
 20
0
 30
0
  9
$UCSORGRIGHT
 10
0
 20
0
 30
0
  9
$UCSORGFRONT
 10
0
 20
0
 30
0
  9
$UCSORGBACK
 10
0
 20
0
 30
0
  9
$PUCSBASE
  2

  9
$PUCSNAME
  2

  9
$PUCSORG
 10
0
 20
0
 30
0
  9
$PUCSXDIR
 10
1
 20
0
 30
0
  9
$PUCSYDIR
 10
0
 20
1
 30
0
  9
$PUCSORTHOREF
  2

  9
$PUCSORTHOVIEW
 70
    0
  9
$PUCSORGTOP
 10
0
 20
0
 30
0
  9
$PUCSORGBOTTOM
 10
0
 20
0
 30
0
  9
$PUCSORGLEFT
 10
0
 20
0
 30
0
  9
$PUCSORGRIGHT
 10
0
 20
0
 30
0
  9
$PUCSORGFRONT
 10
0
 20
0
 30
0
  9
$PUCSORGBACK
 10
0
 20
0
 30
0
  9
$USERI1
 70
    0
  9
$USERI2
 70
    0
  9
$USERI3
 70
    0
  9
$USERI4
 70
    0
  9
$USERI5
 70
    0
  9
$USERR1
 40
0
  9
$USERR2
 40
0
  9
$USERR3
 40
0
  9
$USERR4
 40
0
  9
$USERR5
 40
0
  9
$WORLDVIEW
 70
    1
  9
$SHADEDGE
 70
    3
  9
$SHADEDIF
 70
   70
  9
$TILEMODE
 70
    1
  9
$MAXACTVP
 70
   64
  9
$PINSBASE
 10
44.02733118971061
 20
97.83815648445882
 30
0
  9
$PLIMCHECK
 70
    0
  9
$PEXTMIN
 10
0
 20
0
 30
0
  9
$PEXTMAX
 10
0
 20
0
 30
0
  9
$GRIDMODE
 70
    1
  9
$SNAPSTYLE
 70
    0
  9
$GRIDUNIT
 10
0
 20
0
  9
$PLIMMIN
 10
0
 20
0
  9
$PLIMMAX
 10
210
 20
297
  9
$UNITMODE
 70
    0
  9
$VISRETAIN
 70
    1
  9
$PLINEGEN
 70
    0
  9
$PSLTSCALE
 70
    1
  9
$TREEDEPTH
 70
 3020
  9
$CMLSTYLE
  2
Standard
  9
$CMLJUST
 70
    0
  9
$CMLSCALE
 40
20
  9
$PROXYGRAPHICS
 70
    1
  9
$MEASUREMENT
 70
    1
  9
$CELWEIGHT
370
   -1
  9
$ENDCAPS
280
    0
  9
$JOINSTYLE
280
    0
  9
$LWDISPLAY
290
    0
  9
$INSUNITS
 70
    4
  9
$HYPERLINKBASE
  1

  9
$STYLESHEET
  1

  9
$XEDIT
290
    1
  9
$CEPSNTYPE
380
    0
  9
$PSTYLEMODE
290
    1
  9
$EXTNAMES
290
    1
  9
$PSVPSCALE
 40
0.9517645715155898
  9
$OLESTARTUP
290
    0
  9
$SORTENTS
280
  127
  9
$INDEXCTL
280
    0
  9
$HIDETEXT
280
    1
  9
$XCLIPFRAME
290
    0
  9
$HALOGAP
280
    0
  9
$OBSCOLOR
 70
  257
  9
$OBSLTYPE
280
    0
  9
$INTERSECTIONDISPLAY
280
    0
  9
$INTERSECTIONCOLOR
 70
  257
  9
$DIMASSOC
280
    1
  9
$PROJECTNAME
  1

  9
$CAMERADISPLAY
290
    0
  9
$LENSLENGTH
 40
50
  9
$CAMERAHEIGHT
 40
0
  9
$STEPSPERSEC
 40
2
  9
$STEPSIZE
 40
50
  9
$3DDWFPREC
 40
2
  9
$PSOLWIDTH
 40
5
  9
$PSOLHEIGHT
 40
80
  9
$LOFTANG1
 40
1.570796326794897
  9
$LOFTANG2
 40
1.570796326794897
  9
$LOFTMAG1
 40
0
  9
$LOFTMAG2
 40
0
  9
$LOFTPARAM
 70
    7
  9
$LOFTNORMALS
280
    1
  9
$LATITUDE
 40
1
  9
$LONGITUDE
 40
1
  9
$NORTHDIRECTION
 40
0
  9
$TIMEZONE
 70
-8000
  9
$LIGHTGLYPHDISPLAY
280
    1
  9
$TILEMODELIGHTSYNCH
280
    1
  9
$SOLIDHIST
280
    1
  9
$SHOWHIST
280
    1
  9
$DWFFRAME
280
    2
  9
$DGNFRAME
280
    0
  9
$REALWORLDSCALE
290
    1
  9
$INTERFERECOLOR
 62
    1
  9
$CSHADOW
280
    0
  9
$SHADOWPLANELOCATION
 40
0
  0
ENDSEC
  0
SECTION
  2
CLASSES
  0
ENDSEC
  0
SECTION
  2
TABLES
  0
TABLE
  2
VPORT
  5
8
330
0
100
AcDbSymbolTable
 70
    1
  0
VPORT
  5
31
330
2
100
AcDbSymbolTableRecord
100
AcDbViewportTableRecord
  2
*ACTIVE
 70
    0
 10
0
 20
0
 11
1
 21
1
 12
110.5004987722531
 22
67.53625690607747
 13
0
 23
0
 14
10
 24
10
 15
10
 25
10
 16
0
 26
0
 36
1
 17
0
 27
0
 37
0
 40
164.500076734193
 41
1.905187835420393
 42
50
 43
0
 44
0
 50
0
 51
0
 71
    0
 72
  100
 73
    1
 74
    3
 75
    0
 76
    1
 77
    0
 78
    0
281
    0
 65
    1
110
0
120
0
130
0
111
1
121
0
131
0
112
0
122
1
132
0
 79
    0
146
0
348
10020
 60
    7
 61
    5
292
1
282
    1
141
0
142
0
 63
  250
421
3358443
  0
ENDTAB
  0
TABLE
  2
LTYPE
  5
5
330
0
100
AcDbSymbolTable
 70
    4
  0
LTYPE
  5
14
330
5
100
AcDbSymbolTableRecord
100
AcDbLinetypeTableRecord
  2
ByBlock
 70
    0
  3

 72
   65
 73
    0
 40
0
  0
LTYPE
  5
15
330
5
100
AcDbSymbolTableRecord
100
AcDbLinetypeTableRecord
  2
ByLayer
 70
    0
  3

 72
   65
 73
    0
 40
0
  0
LTYPE
  5
16
330
5
100
AcDbSymbolTableRecord
100
AcDbLinetypeTableRecord
  2
Continuous
 70
    0
  3
Solid line
 72
   65
 73
    0
 40
0
  0
LTYPE
  5
32
330
5
100
AcDbSymbolTableRecord
100
AcDbLinetypeTableRecord
  2
DOT
 70
    0
  3
Dot . . . . . . . . . . . . . . . . . . . . . .
 72
   65
 73
    2
 40
6.35
 49
0
 74
    0
 49
-6.35
 74
    0
  0
LTYPE
  5
33
330
5
100
AcDbSymbolTableRecord
100
AcDbLinetypeTableRecord
  2
DOTTINY
 70
    0
  3
Dot (.15x) .....................................
 72
   65
 73
    2
 40
0.9525
 49
0
 74
    0
 49
-0.9525
 74
    0
  0
LTYPE
  5
34
330
5
100
AcDbSymbolTableRecord
100
AcDbLinetypeTableRecord
  2
DOT2
 70
    0
  3
Dot (.5x) .....................................
 72
   65
 73
    2
 40
3.175
 49
0
 74
    0
 49
-3.175
 74
    0
  0
LTYPE
  5
35
330
5
100
AcDbSymbolTableRecord
100
AcDbLinetypeTableRecord
  2
DOTX2
 70
    0
  3
Dot (2x) .  .  .  .  .  .  .  .  .  .  .  .  .
 72
   65
 73
    2
 40
12.7
 49
0
 74
    0
 49
-12.7
 74
    0
  0
LTYPE
  5
36
330
5
100
AcDbSymbolTableRecord
100
AcDbLinetypeTableRecord
  2
DASHED
 70
    0
  3
Dashed _ _ _ _ _ _ _ _ _ _ _ _ _ _ _ _ _
 72
   65
 73
    2
 40
19.05
 49
12.7
 74
    0
 49
-6.35
 74
    0
  0
LTYPE
  5
37
330
5
100
AcDbSymbolTableRecord
100
AcDbLinetypeTableRecord
  2
DASHEDTINY
 70
    0
  3
Dashed (.15x) _ _ _ _ _ _ _ _ _ _ _ _ _ _ _ _ _
 72
   65
 73
    2
 40
2.8575
 49
1.905
 74
    0
 49
-0.9525
 74
    0
  0
LTYPE
  5
38
330
5
100
AcDbSymbolTableRecord
100
AcDbLinetypeTableRecord
  2
DASHED2
 70
    0
  3
Dashed (.5x) _ _ _ _ _ _ _ _ _ _ _ _ _ _ _ _ _
 72
   65
 73
    2
 40
9.524999999999999
 49
6.35
 74
    0
 49
-3.175
 74
    0
  0
LTYPE
  5
39
330
5
100
AcDbSymbolTableRecord
100
AcDbLinetypeTableRecord
  2
DASHEDX2
 70
    0
  3
Dashed (2x) ____  ____  ____  ____  ____  ___
 72
   65
 73
    2
 40
38.09999999999999
 49
25.4
 74
    0
 49
-12.7
 74
    0
  0
LTYPE
  5
3A
330
5
100
AcDbSymbolTableRecord
100
AcDbLinetypeTableRecord
  2
DASHDOT
 70
    0
  3
Dash dot __ . __ . __ . __ . __ . __ . __ . __
 72
   65
 73
    4
 40
25.4
 49
12.7
 74
    0
 49
-6.35
 74
    0
 49
0
 74
    0
 49
-6.35
 74
    0
  0
LTYPE
  5
3B
330
5
100
AcDbSymbolTableRecord
100
AcDbLinetypeTableRecord
  2
DASHDOTTINY
 70
    0
  3
Dash dot (.15x) _._._._._._._._._._._._._._._.
 72
   65
 73
    4
 40
3.81
 49
1.905
 74
    0
 49
-0.9525
 74
    0
 49
0
 74
    0
 49
-0.9525
 74
    0
  0
LTYPE
  5
3C
330
5
100
AcDbSymbolTableRecord
100
AcDbLinetypeTableRecord
  2
DASHDOT2
 70
    0
  3
Dash dot (.5x) _._._._._._._._._._._._._._._.
 72
   65
 73
    4
 40
12.7
 49
6.35
 74
    0
 49
-3.175
 74
    0
 49
0
 74
    0
 49
-3.175
 74
    0
  0
LTYPE
  5
3D
330
5
100
AcDbSymbolTableRecord
100
AcDbLinetypeTableRecord
  2
DASHDOTX2
 70
    0
  3
Dash dot (2x) ____  .  ____  .  ____  .  ___
 72
   65
 73
    4
 40
50.8
 49
25.4
 74
    0
 49
-12.7
 74
    0
 49
0
 74
    0
 49
-12.7
 74
    0
  0
LTYPE
  5
3E
330
5
100
AcDbSymbolTableRecord
100
AcDbLinetypeTableRecord
  2
DIVIDE
 70
    0
  3
Divide ____ . . ____ . . ____ . . ____ . . ____
 72
   65
 73
    6
 40
31.75
 49
12.7
 74
    0
 49
-6.35
 74
    0
 49
0
 74
    0
 49
-6.35
 74
    0
 49
0
 74
    0
 49
-6.35
 74
    0
  0
LTYPE
  5
3F
330
5
100
AcDbSymbolTableRecord
100
AcDbLinetypeTableRecord
  2
DIVIDETINY
 70
    0
  3
Divide (.15x) __..__..__..__..__..__..__..__.._
 72
   65
 73
    6
 40
4.7625
 49
1.905
 74
    0
 49
-0.9525
 74
    0
 49
0
 74
    0
 49
-0.9525
 74
    0
 49
0
 74
    0
 49
-0.9525
 74
    0
  0
LTYPE
  5
40
330
5
100
AcDbSymbolTableRecord
100
AcDbLinetypeTableRecord
  2
DIVIDE2
 70
    0
  3
Divide (.5x) __..__..__..__..__..__..__..__.._
 72
   65
 73
    6
 40
15.875
 49
6.35
 74
    0
 49
-3.175
 74
    0
 49
0
 74
    0
 49
-3.175
 74
    0
 49
0
 74
    0
 49
-3.175
 74
    0
  0
LTYPE
  5
41
330
5
100
AcDbSymbolTableRecord
100
AcDbLinetypeTableRecord
  2
DIVIDEX2
 70
    0
  3
Divide (2x) ________  .  .  ________  .  .  _
 72
   65
 73
    6
 40
63.5
 49
25.4
 74
    0
 49
-12.7
 74
    0
 49
0
 74
    0
 49
-12.7
 74
    0
 49
0
 74
    0
 49
-12.7
 74
    0
  0
LTYPE
  5
42
330
5
100
AcDbSymbolTableRecord
100
AcDbLinetypeTableRecord
  2
BORDER
 70
    0
  3
Border __ __ . __ __ . __ __ . __ __ . __ __ .
 72
   65
 73
    6
 40
44.45
 49
12.7
 74
    0
 49
-6.35
 74
    0
 49
12.7
 74
    0
 49
-6.35
 74
    0
 49
0
 74
    0
 49
-6.35
 74
    0
  0
LTYPE
  5
43
330
5
100
AcDbSymbolTableRecord
100
AcDbLinetypeTableRecord
  2
BORDERTINY
 70
    0
  3
Border (.15x) __.__.__.__.__.__.__.__.__.__.__.
 72
   65
 73
    6
 40
6.6675
 49
1.905
 74
    0
 49
-0.9525
 74
    0
 49
1.905
 74
    0
 49
-0.9525
 74
    0
 49
0
 74
    0
 49
-0.9525
 74
    0
  0
LTYPE
  5
44
330
5
100
AcDbSymbolTableRecord
100
AcDbLinetypeTableRecord
  2
BORDER2
 70
    0
  3
Border (.5x) __.__.__.__.__.__.__.__.__.__.__.
 72
   65
 73
    6
 40
22.225
 49
6.35
 74
    0
 49
-3.175
 74
    0
 49
6.35
 74
    0
 49
-3.175
 74
    0
 49
0
 74
    0
 49
-3.175
 74
    0
  0
LTYPE
  5
45
330
5
100
AcDbSymbolTableRecord
100
AcDbLinetypeTableRecord
  2
BORDERX2
 70
    0
  3
Border (2x) ____  ____  .  ____  ____  .  ___
 72
   65
 73
    6
 40
88.89999999999999
 49
25.4
 74
    0
 49
-12.7
 74
    0
 49
25.4
 74
    0
 49
-12.7
 74
    0
 49
0
 74
    0
 49
-12.7
 74
    0
  0
LTYPE
  5
46
330
5
100
AcDbSymbolTableRecord
100
AcDbLinetypeTableRecord
  2
CENTER
 70
    0
  3
Center ____ _ ____ _ ____ _ ____ _ ____ _ ____
 72
   65
 73
    4
 40
50.8
 49
31.75
 74
    0
 49
-6.35
 74
    0
 49
6.35
 74
    0
 49
-6.35
 74
    0
  0
LTYPE
  5
47
330
5
100
AcDbSymbolTableRecord
100
AcDbLinetypeTableRecord
  2
CENTERTINY
 70
    0
  3
Center (.15x) ___ _ ___ _ ___ _ ___ _ ___ _ ___
 72
   65
 73
    4
 40
7.62
 49
4.7625
 74
    0
 49
-0.9525
 74
    0
 49
0.9525
 74
    0
 49
-0.9525
 74
    0
  0
LTYPE
  5
48
330
5
100
AcDbSymbolTableRecord
100
AcDbLinetypeTableRecord
  2
CENTER2
 70
    0
  3
Center (.5x) ___ _ ___ _ ___ _ ___ _ ___ _ ___
 72
   65
 73
    4
 40
28.575
 49
19.05
 74
    0
 49
-3.175
 74
    0
 49
3.175
 74
    0
 49
-3.175
 74
    0
  0
LTYPE
  5
49
330
5
100
AcDbSymbolTableRecord
100
AcDbLinetypeTableRecord
  2
CENTERX2
 70
    0
  3
Center (2x) ________  __  ________  __  _____
 72
   65
 73
    4
 40
101.6
 49
63.5
 74
    0
 49
-12.7
 74
    0
 49
12.7
 74
    0
 49
-12.7
 74
    0
  0
ENDTAB
  0
TABLE
  2
LAYER
  5
2
330
0
100
AcDbSymbolTable
 70
    1
  0
LAYER
  5
10
330
2
100
AcDbSymbolTableRecord
100
AcDbLayerTableRecord
  2
0
 70
    0
 62
    7
  6
CONTINUOUS
370
    0
390
F
  0
LAYER
  5
4A
330
2
100
AcDbSymbolTableRecord
100
AcDbLayerTableRecord
  2
Ffab
 70
    0
 62
    3
  6
CONTINUOUS
370
    0
390
F
  0
LAYER
  5
4B
330
2
100
AcDbSymbolTableRecord
100
AcDbLayerTableRecord
  2
Medidas
 70
    0
 62
    4
  6
CONTINUOUS
370
    0
390
F
  0
ENDTAB
  0
TABLE
  2
STYLE
  5
3
330
0
100
AcDbSymbolTable
 70
    3
  0
STYLE
  5
4C
330
2
100
AcDbSymbolTableRecord
100
AcDbTextStyleTableRecord
  2
standard
 70
    0
 40
0
 41
1
 50
0
 71
    0
 42
1
  3
standard
  4

  0
STYLE
  5
4D
330
2
100
AcDbSymbolTableRecord
100
AcDbTextStyleTableRecord
  2
STANDARD
 70
    0
 40
0
 41
1
 50
0
 71
    0
 42
1
  3
STANDARD
  4

  0
ENDTAB
  0
TABLE
  2
VIEW
  5
6
330
0
100
AcDbSymbolTable
 70
    0
  0
ENDTAB
  0
TABLE
  2
UCS
  5
7
330
0
100
AcDbSymbolTable
 70
    0
  0
ENDTAB
  0
TABLE
  2
APPID
  5
9
330
0
100
AcDbSymbolTable
 70
    1
  0
APPID
  5
12
330
9
100
AcDbSymbolTableRecord
100
AcDbRegAppTableRecord
  2
ACAD
 70
    0
  0
APPID
  5
4E
330
9
100
AcDbSymbolTableRecord
100
AcDbRegAppTableRecord
  2
LibreCad
 70
    0
  0
ENDTAB
  0
TABLE
  2
DIMSTYLE
  5
A
330
0
100
AcDbSymbolTable
 70
    1
100
AcDbDimStyleTable
 71
    1
  0
DIMSTYLE
105
4F
330
A
100
AcDbSymbolTableRecord
100
AcDbDimStyleTableRecord
  2
Standard
 70
    0
 40
1
 41
2.5
 42
0.625
 43
0.38
 44
1.25
 45
0
 46
0
 47
0
 48
0
 49
1
140
2.5
141
0.09
142
0
143
25.4
144
1
145
0
146
1
147
0.625
148
0
 71
    0
 72
    0
 73
    0
 74
    1
 75
    0
 76
    0
 77
    0
 78
    1
 79
    0
170
    0
171
    2
172
    0
173
    0
174
    0
175
    0
176
    0
177
    0
178
    0
179
    2
271
    2
272
    4
273
    2
274
    2
275
    0
276
    0
277
    2
278
    0
279
    0
280
    0
281
    0
282
    0
283
    1
284
    0
285
    0
286
    0
288
    0
289
    3
340
standard
341

371
   -2
372
   -2
  0
ENDTAB
  0
TABLE
  2
BLOCK_RECORD
  5
1
330
0
100
AcDbSymbolTable
 70
    2
  0
BLOCK_RECORD
  5
1F
330
1
100
AcDbSymbolTableRecord
100
AcDbBlockTableRecord
  2
*Model_Space
 70
    0
280
    1
281
    0
  0
BLOCK_RECORD
  5
1E
330
1
100
AcDbSymbolTableRecord
100
AcDbBlockTableRecord
  2
*Paper_Space
 70
    0
280
    1
281
    0
  0
BLOCK_RECORD
  5
50
330
1
100
AcDbSymbolTableRecord
100
AcDbBlockTableRecord
  2
*D2
 70
    0
280
    1
281
    0
  0
BLOCK_RECORD
  5
53
330
1
100
AcDbSymbolTableRecord
100
AcDbBlockTableRecord
  2
*D12
 70
    0
280
    1
281
    0
  0
BLOCK_RECORD
  5
56
330
1
100
AcDbSymbolTableRecord
100
AcDbBlockTableRecord
  2
*D22
 70
    0
280
    1
281
    0
  0
BLOCK_RECORD
  5
59
330
1
100
AcDbSymbolTableRecord
100
AcDbBlockTableRecord
  2
*D25
 70
    0
280
    1
281
    0
  0
BLOCK_RECORD
  5
5C
330
1
100
AcDbSymbolTableRecord
100
AcDbBlockTableRecord
  2
*D23
 70
    0
280
    1
281
    0
  0
BLOCK_RECORD
  5
5F
330
1
100
AcDbSymbolTableRecord
100
AcDbBlockTableRecord
  2
*D9
 70
    0
280
    1
281
    0
  0
BLOCK_RECORD
  5
62
330
1
100
AcDbSymbolTableRecord
100
AcDbBlockTableRecord
  2
*D8
 70
    0
280
    1
281
    0
  0
BLOCK_RECORD
  5
65
330
1
100
AcDbSymbolTableRecord
100
AcDbBlockTableRecord
  2
*D16
 70
    0
280
    1
281
    0
  0
BLOCK_RECORD
  5
68
330
1
100
AcDbSymbolTableRecord
100
AcDbBlockTableRecord
  2
*D24
 70
    0
280
    1
281
    0
  0
BLOCK_RECORD
  5
6B
330
1
100
AcDbSymbolTableRecord
100
AcDbBlockTableRecord
  2
*D18
 70
    0
280
    1
281
    0
  0
BLOCK_RECORD
  5
6E
330
1
100
AcDbSymbolTableRecord
100
AcDbBlockTableRecord
  2
*D5
 70
    0
280
    1
281
    0
  0
BLOCK_RECORD
  5
71
330
1
100
AcDbSymbolTableRecord
100
AcDbBlockTableRecord
  2
*D6
 70
    0
280
    1
281
    0
  0
BLOCK_RECORD
  5
74
330
1
100
AcDbSymbolTableRecord
100
AcDbBlockTableRecord
  2
*D20
 70
    0
280
    1
281
    0
  0
BLOCK_RECORD
  5
77
330
1
100
AcDbSymbolTableRecord
100
AcDbBlockTableRecord
  2
*D4
 70
    0
280
    1
281
    0
  0
BLOCK_RECORD
  5
7A
330
1
100
AcDbSymbolTableRecord
100
AcDbBlockTableRecord
  2
*D21
 70
    0
280
    1
281
    0
  0
BLOCK_RECORD
  5
7D
330
1
100
AcDbSymbolTableRecord
100
AcDbBlockTableRecord
  2
*D13
 70
    0
280
    1
281
    0
  0
BLOCK_RECORD
  5
80
330
1
100
AcDbSymbolTableRecord
100
AcDbBlockTableRecord
  2
*D3
 70
    0
280
    1
281
    0
  0
BLOCK_RECORD
  5
83
330
1
100
AcDbSymbolTableRecord
100
AcDbBlockTableRecord
  2
*D15
 70
    0
280
    1
281
    0
  0
BLOCK_RECORD
  5
86
330
1
100
AcDbSymbolTableRecord
100
AcDbBlockTableRecord
  2
*D1
 70
    0
280
    1
281
    0
  0
BLOCK_RECORD
  5
89
330
1
100
AcDbSymbolTableRecord
100
AcDbBlockTableRecord
  2
*D7
 70
    0
280
    1
281
    0
  0
BLOCK_RECORD
  5
8C
330
1
100
AcDbSymbolTableRecord
100
AcDbBlockTableRecord
  2
*D10
 70
    0
280
    1
281
    0
  0
BLOCK_RECORD
  5
8F
330
1
100
AcDbSymbolTableRecord
100
AcDbBlockTableRecord
  2
*D11
 70
    0
280
    1
281
    0
  0
BLOCK_RECORD
  5
92
330
1
100
AcDbSymbolTableRecord
100
AcDbBlockTableRecord
  2
*D14
 70
    0
280
    1
281
    0
  0
BLOCK_RECORD
  5
95
330
1
100
AcDbSymbolTableRecord
100
AcDbBlockTableRecord
  2
*D17
 70
    0
280
    1
281
    0
  0
BLOCK_RECORD
  5
98
330
1
100
AcDbSymbolTableRecord
100
AcDbBlockTableRecord
  2
*D19
 70
    0
280
    1
281
    0
  0
ENDTAB
  0
ENDSEC
  0
SECTION
  2
BLOCKS
  0
BLOCK
  5
20
330
1F
100
AcDbEntity
  8
0
100
AcDbBlockBegin
  2
*Model_Space
 70
    0
 10
0
 20
0
 30
0
  3
*Model_Space
  1

  0
ENDBLK
  5
21
330
1F
100
AcDbEntity
  8
0
100
AcDbBlockEnd
  0
BLOCK
  5
1C
330
1B
100
AcDbEntity
  8
0
100
AcDbBlockBegin
  2
*Paper_Space
 70
    0
 10
0
 20
0
 30
0
  3
*Paper_Space
  1

  0
ENDBLK
  5
1D
330
1F
100
AcDbEntity
  8
0
100
AcDbBlockEnd
  0
BLOCK
  5
51
330
50
100
AcDbEntity
  8
0
100
AcDbBlockBegin
  2
*D2
 70
    1
 10
0
 20
0
  3
*D2
  1

  0
LINE
  5
9B
100
AcDbEntity
  8
Medidas
  6
ByBlock
 62
    0
370
   -2
100
AcDbLine
 10
-30
 20
87
 11
-30
 21
120
  0
SOLID
  5
9C
100
AcDbEntity
  8
Medidas
  6
ByBlock
 62
    0
370
   -2
100
AcDbTrace
 10
-30
 20
87
 30
0
 11
-30.41628465777285
 21
89.5
 31
0
 12
-29.58371534222716
 22
89.5
 32
0
 13
-29.58371534222716
 23
89.5
 33
0
  0
SOLID
  5
9D
100
AcDbEntity
  8
Medidas
  6
ByBlock
 62
    0
370
   -2
100
AcDbTrace
 10
-30
 20
120
 30
0
 11
-29.58371534222716
 21
117.5
 31
0
 12
-30.41628465777284
 22
117.5
 32
0
 13
-30.41628465777284
 23
117.5
 33
0
  0
MTEXT
  5
9E
100
AcDbEntity
  8
Medidas
  6
CONTINUOUS
 62
    0
370
   -2
100
AcDbMText
 10
-31.875
 20
103.5
 30
0
 40
2.5
 41
7.777777777778088
 71
    5
 72
    1
  1
33.00
  7
standard
210
0
220
0
230
1
 50
90
 73
    2
 44
1
  0
LINE
  5
9F
100
AcDbEntity
  8
Medidas
  6
ByBlock
 62
    0
370
   -2
100
AcDbLine
 10
-9.625000000000002
 20
87
 11
-31.25
 21
87
  0
LINE
  5
A0
100
AcDbEntity
  8
Medidas
  6
ByBlock
 62
    0
370
   -2
100
AcDbLine
 10
-0.625
 20
120
 11
-31.25
 21
120
  0
ENDBLK
  5
52
330
50
100
AcDbEntity
  8
0
100
AcDbBlockEnd
  0
BLOCK
  5
54
330
53
100
AcDbEntity
  8
0
100
AcDbBlockBegin
  2
*D12
 70
    1
 10
0
 20
0
  3
*D12
  1

  0
LINE
  5
A1
100
AcDbEntity
  8
Medidas
  6
ByBlock
 62
    0
370
   -2
100
AcDbLine
 10
-30
 20
21
 11
-30
 21
2.1316282072803e-015
  0
SOLID
  5
A2
100
AcDbEntity
  8
Medidas
  6
ByBlock
 62
    0
370
   -2
100
AcDbTrace
 10
-30
 20
21
 30
0
 11
-29.58371534222716
 21
18.5
 31
0
 12
-30.41628465777284
 22
18.5
 32
0
 13
-30.41628465777284
 23
18.5
 33
0
  0
SOLID
  5
A3
100
AcDbEntity
  8
Medidas
  6
ByBlock
 62
    0
370
   -2
100
AcDbTrace
 10
-30
 20
2.1316282072803e-015
 30
0
 11
-30.41628465777284
 21
2.500000000000002
 31
0
 12
-29.58371534222716
 22
2.500000000000002
 32
0
 13
-29.58371534222716
 23
2.500000000000002
 33
0
  0
MTEXT
  5
A4
100
AcDbEntity
  8
Medidas
  6
CONTINUOUS
 62
    0
370
   -2
100
AcDbMText
 10
-31.875
 20
10.5
 30
0
 40
2.5
 41
7.222222222222222
 71
    5
 72
    1
  1
21.00
  7
standard
210
0
220
0
230
1
 50
90
 73
    2
 44
1
  0
LINE
  5
A5
100
AcDbEntity
  8
Medidas
  6
ByBlock
 62
    0
370
   -2
100
AcDbLine
 10
-9.625000000000002
 20
21
 11
-31.25
 21
21
  0
LINE
  5
A6
100
AcDbEntity
  8
Medidas
  6
ByBlock
 62
    0
370
   -2
100
AcDbLine
 10
-0.625
 20
7.653789711389858e-017
 11
-31.25
 21
2.284704001508098e-015
  0
ENDBLK
  5
55
330
53
100
AcDbEntity
  8
0
100
AcDbBlockEnd
  0
BLOCK
  5
57
330
56
100
AcDbEntity
  8
0
100
AcDbBlockBegin
  2
*D22
 70
    1
 10
0
 20
0
  3
*D22
  1

  0
LINE
  5
A7
100
AcDbEntity
  8
Medidas
  6
ByBlock
 62
    0
370
   -2
100
AcDbLine
 10
136.1
 20
110
 11
146.1
 21
110
  0
SOLID
  5
A8
100
AcDbEntity
  8
Medidas
  6
ByBlock
 62
    0
370
   -2
100
AcDbTrace
 10
136.1
 20
110
 30
0
 11
138.6
 21
110.4162846577728
 31
0
 12
138.6
 22
109.5837153422272
 32
0
 13
138.6
 23
109.5837153422272
 33
0
  0
SOLID
  5
A9
100
AcDbEntity
  8
Medidas
  6
ByBlock
 62
    0
370
   -2
100
AcDbTrace
 10
146.1
 20
110
 30
0
 11
143.6
 21
109.5837153422272
 31
0
 12
143.6
 22
110.4162846577728
 32
0
 13
143.6
 23
110.4162846577728
 33
0
  0
MTEXT
  5
AA
100
AcDbEntity
  8
Medidas
  6
CONTINUOUS
 62
    0
370
   -2
100
AcDbMText
 10
141.1
 20
111.875
 30
0
 40
2.5
 41
7.222222222222222
 71
    5
 72
    1
  1
10.00
  7
standard
210
0
220
0
230
1
 50
0
 73
    2
 44
1
  0
LINE
  5
AB
100
AcDbEntity
  8
Medidas
  6
ByBlock
 62
    0
370
   -2
100
AcDbLine
 10
136.1
 20
110.875
 11
136.1
 21
108.75
  0
LINE
  5
AC
100
AcDbEntity
  8
Medidas
  6
ByBlock
 62
    0
370
   -2
100
AcDbLine
 10
146.1
 20
118.875
 11
146.1
 21
108.75
  0
ENDBLK
  5
58
330
56
100
AcDbEntity
  8
0
100
AcDbBlockEnd
  0
BLOCK
  5
5A
330
59
100
AcDbEntity
  8
0
100
AcDbBlockBegin
  2
*D25
 70
    1
 10
0
 20
0
  3
*D25
  1

  0
LINE
  5
AD
100
AcDbEntity
  8
Medidas
  6
ByBlock
 62
    0
370
   -2
100
AcDbLine
 10
58
 20
6.349999999999999
 11
58
 21
-4.498875284143122e-016
  0
SOLID
  5
AE
100
AcDbEntity
  8
Medidas
  6
ByBlock
 62
    0
370
   -2
100
AcDbTrace
 10
58
 20
6.349999999999999
 30
0
 11
58.41628465777284
 21
3.849999999999999
 31
0
 12
57.58371534222716
 22
3.849999999999999
 32
0
 13
57.58371534222716
 23
3.849999999999999
 33
0
  0
SOLID
  5
AF
100
AcDbEntity
  8
Medidas
  6
ByBlock
 62
    0
370
   -2
100
AcDbTrace
 10
58
 20
-4.498875284143122e-016
 30
0
 11
57.58371534222716
 21
2.5
 31
0
 12
58.41628465777284
 22
2.5
 32
0
 13
58.41628465777284
 23
2.5
 33
0
  0
MTEXT
  5
B0
100
AcDbEntity
  8
Medidas
  6
CONTINUOUS
 62
    0
370
   -2
100
AcDbMText
 10
56.125
 20
3.174999999999999
 30
0
 40
2.5
 41
5.833333333333799
 71
    5
 72
    1
  1
6.35
  7
standard
210
0
220
0
230
1
 50
90
 73
    2
 44
1
  0
LINE
  5
B1
100
AcDbEntity
  8
Medidas
  6
ByBlock
 62
    0
370
   -2
100
AcDbLine
 10
49.185
 20
6.35
 11
59.25
 21
6.349999999999999
  0
LINE
  5
B2
100
AcDbEntity
  8
Medidas
  6
ByBlock
 62
    0
370
   -2
100
AcDbLine
 10
52.29339592085834
 20
-1.530757942277972e-016
 11
59.25
 21
-7.560391168699065e-016
  0
ENDBLK
  5
5B
330
59
100
AcDbEntity
  8
0
100
AcDbBlockEnd
  0
BLOCK
  5
5D
330
5C
100
AcDbEntity
  8
0
100
AcDbBlockBegin
  2
*D23
 70
    1
 10
0
 20
0
  3
*D23
  1

  0
LINE
  5
B3
100
AcDbEntity
  8
Medidas
  6
ByBlock
 62
    0
370
   -2
100
AcDbLine
 10
9.999999999999998
 20
79.5
 11
10
 21
92
  0
SOLID
  5
B4
100
AcDbEntity
  8
Medidas
  6
ByBlock
 62
    0
370
   -2
100
AcDbTrace
 10
10
 20
84.5
 30
0
 11
10.41628465777284
 21
82
 31
0
 12
9.58371534222716
 22
82
 32
0
 13
9.58371534222716
 23
82
 33
0
  0
SOLID
  5
B5
100
AcDbEntity
  8
Medidas
  6
ByBlock
 62
    0
370
   -2
100
AcDbTrace
 10
10
 20
87
 30
0
 11
9.58371534222716
 21
89.5
 31
0
 12
10.41628465777284
 22
89.5
 32
0
 13
10.41628465777284
 23
89.5
 33
0
  0
MTEXT
  5
B6
100
AcDbEntity
  8
Medidas
  6
CONTINUOUS
 62
    0
370
   -2
100
AcDbMText
 10
8.125000000000002
 20
90.54166666666674
 30
0
 40
2.5
 41
5.833333333333489
 71
    5
 72
    1
  1
2.50
  7
standard
210
0
220
0
230
1
 50
89.99999999999999
 73
    2
 44
1
  0
LINE
  5
B7
100
AcDbEntity
  8
Medidas
  6
ByBlock
 62
    0
370
   -2
100
AcDbLine
 10
0.625
 20
84.5
 11
11.25
 21
84.5
  0
LINE
  5
B8
100
AcDbEntity
  8
Medidas
  6
ByBlock
 62
    0
370
   -2
100
AcDbLine
 10
0.624999999999998
 20
87
 11
11.25
 21
87
  0
ENDBLK
  5
5E
330
5C
100
AcDbEntity
  8
0
100
AcDbBlockEnd
  0
BLOCK
  5
60
330
5F
100
AcDbEntity
  8
0
100
AcDbBlockBegin
  2
*D9
 70
    1
 10
0
 20
0
  3
*D9
  1

  0
LINE
  5
B9
100
AcDbEntity
  8
Medidas
  6
ByBlock
 62
    0
370
   -2
100
AcDbLine
 10
117
 20
109.5
 11
117
 21
124.5
  0
SOLID
  5
BA
100
AcDbEntity
  8
Medidas
  6
ByBlock
 62
    0
370
   -2
100
AcDbTrace
 10
117
 20
114.5
 30
0
 11
117.4162846577728
 21
112
 31
0
 12
116.5837153422272
 22
112
 32
0
 13
116.5837153422272
 23
112
 33
0
  0
SOLID
  5
BB
100
AcDbEntity
  8
Medidas
  6
ByBlock
 62
    0
370
   -2
100
AcDbTrace
 10
117
 20
119.5
 30
0
 11
116.5837153422272
 21
122
 31
0
 12
117.4162846577728
 22
122
 32
0
 13
117.4162846577728
 23
122
 33
0
  0
MTEXT
  5
BC
100
AcDbEntity
  8
Medidas
  6
CONTINUOUS
 62
    0
370
   -2
100
AcDbMText
 10
115.125
 20
123.0416666666667
 30
0
 40
2.5
 41
5.833333333333488
 71
    5
 72
    1
  1
5.00
  7
standard
210
0
220
0
230
1
 50
90
 73
    2
 44
1
  0
LINE
  5
BD
100
AcDbEntity
  8
Medidas
  6
ByBlock
 62
    0
370
   -2
100
AcDbLine
 10
112.075
 20
114.5
 11
118.25
 21
114.5
  0
LINE
  5
BE
100
AcDbEntity
  8
Medidas
  6
ByBlock
 62
    0
370
   -2
100
AcDbLine
 10
145.475
 20
119.5
 11
115.75
 21
119.5
  0
ENDBLK
  5
61
330
5F
100
AcDbEntity
  8
0
100
AcDbBlockEnd
  0
BLOCK
  5
63
330
62
100
AcDbEntity
  8
0
100
AcDbBlockBegin
  2
*D8
 70
    1
 10
0
 20
0
  3
*D8
  1

  0
LINE
  5
BF
100
AcDbEntity
  8
Medidas
  6
ByBlock
 62
    0
370
   -2
100
AcDbLine
 10
11
 20
109.5
 11
11
 21
124.5
  0
SOLID
  5
C0
100
AcDbEntity
  8
Medidas
  6
ByBlock
 62
    0
370
   -2
100
AcDbTrace
 10
11
 20
114.5
 30
0
 11
11.41628465777284
 21
112
 31
0
 12
10.58371534222716
 22
112
 32
0
 13
10.58371534222716
 23
112
 33
0
  0
SOLID
  5
C1
100
AcDbEntity
  8
Medidas
  6
ByBlock
 62
    0
370
   -2
100
AcDbTrace
 10
11
 20
119.5
 30
0
 11
10.58371534222716
 21
122
 31
0
 12
11.41628465777284
 22
122
 32
0
 13
11.41628465777284
 23
122
 33
0
  0
MTEXT
  5
C2
100
AcDbEntity
  8
Medidas
  6
CONTINUOUS
 62
    0
370
   -2
100
AcDbMText
 10
9.125000000000002
 20
123.0416666666667
 30
0
 40
2.5
 41
5.833333333333488
 71
    5
 72
    1
  1
5.00
  7
standard
210
0
220
0
230
1
 50
89.99999999999999
 73
    2
 44
1
  0
LINE
  5
C3
100
AcDbEntity
  8
Medidas
  6
ByBlock
 62
    0
370
   -2
100
AcDbLine
 10
5.625
 20
114.5
 11
12.25
 21
114.5
  0
LINE
  5
C4
100
AcDbEntity
  8
Medidas
  6
ByBlock
 62
    0
370
   -2
100
AcDbLine
 10
0.625
 20
119.5
 11
12.25
 21
119.5
  0
ENDBLK
  5
64
330
62
100
AcDbEntity
  8
0
100
AcDbBlockEnd
  0
BLOCK
  5
66
330
65
100
AcDbEntity
  8
0
100
AcDbBlockBegin
  2
*D16
 70
    1
 10
0
 20
0
  3
*D16
  1

  0
LINE
  5
C5
100
AcDbEntity
  8
Medidas
  6
ByBlock
 62
    0
370
   -2
100
AcDbLine
 10
51
 20
100
 11
1.97215226305253e-031
 21
100
  0
SOLID
  5
C6
100
AcDbEntity
  8
Medidas
  6
ByBlock
 62
    0
370
   -2
100
AcDbTrace
 10
51
 20
100
 30
0
 11
48.5
 21
99.58371534222717
 31
0
 12
48.5
 22
100.4162846577728
 32
0
 13
48.5
 23
100.4162846577728
 33
0
  0
SOLID
  5
C7
100
AcDbEntity
  8
Medidas
  6
ByBlock
 62
    0
370
   -2
100
AcDbTrace
 10
1.97215226305253e-031
 20
100
 30
0
 11
2.5
 21
100.4162846577728
 31
0
 12
2.5
 22
99.58371534222717
 32
0
 13
2.5
 23
99.58371534222717
 33
0
  0
MTEXT
  5
C8
100
AcDbEntity
  8
Medidas
  6
CONTINUOUS
 62
    0
370
   -2
100
AcDbMText
 10
25.5
 20
101.875
 30
0
 40
2.5
 41
7.222222222222378
 71
    5
 72
    1
  1
51.00
  7
standard
210
0
220
0
230
1
 50
360
 73
    2
 44
1
  0
LINE
  5
C9
100
AcDbEntity
  8
Medidas
  6
ByBlock
 62
    0
370
   -2
100
AcDbLine
 10
51
 20
110.375
 11
51
 21
98.75
  0
LINE
  5
CA
100
AcDbEntity
  8
Medidas
  6
ByBlock
 62
    0
370
   -2
100
AcDbLine
 10
-1.148068456708479e-016
 20
118.875
 11
-2.296136913416955e-016
 21
98.75
  0
ENDBLK
  5
67
330
65
100
AcDbEntity
  8
0
100
AcDbBlockEnd
  0
BLOCK
  5
69
330
68
100
AcDbEntity
  8
0
100
AcDbBlockBegin
  2
*D24
 70
    1
 10
0
 20
0
  3
*D24
  1

  0
LINE
  5
CB
100
AcDbEntity
  8
Medidas
  6
ByBlock
 62
    0
370
   -2
100
AcDbLine
 10
-9
 20
92
 11
0
 21
92
  0
SOLID
  5
CC
100
AcDbEntity
  8
Medidas
  6
ByBlock
 62
    0
370
   -2
100
AcDbTrace
 10
-9
 20
92
 30
0
 11
-6.5
 21
92.41628465777283
 31
0
 12
-6.5
 22
91.58371534222717
 32
0
 13
-6.5
 23
91.58371534222717
 33
0
  0
SOLID
  5
CD
100
AcDbEntity
  8
Medidas
  6
ByBlock
 62
    0
370
   -2
100
AcDbTrace
 10
0
 20
92
 30
0
 11
-2.5
 21
91.58371534222717
 31
0
 12
-2.5
 22
92.41628465777283
 32
0
 13
-2.5
 23
92.41628465777283
 33
0
  0
MTEXT
  5
CE
100
AcDbEntity
  8
Medidas
  6
CONTINUOUS
 62
    0
370
   -2
100
AcDbMText
 10
-4.5
 20
93.875
 30
0
 40
2.5
 41
5.833333333333488
 71
    5
 72
    1
  1
9.00
  7
standard
210
0
220
0
230
1
 50
0
 73
    2
 44
1
  0
LINE
  5
CF
100
AcDbEntity
  8
Medidas
  6
ByBlock
 62
    0
370
   -2
100
AcDbLine
 10
-9
 20
87.625
 11
-9
 21
93.25
  0
LINE
  5
D0
100
AcDbEntity
  8
Medidas
  6
ByBlock
 62
    0
370
   -2
100
AcDbLine
 10
3.826894855694929e-017
 20
87.625
 11
7.653789711389858e-017
 21
93.25
  0
ENDBLK
  5
6A
330
68
100
AcDbEntity
  8
0
100
AcDbBlockEnd
  0
BLOCK
  5
6C
330
6B
100
AcDbEntity
  8
0
100
AcDbBlockBegin
  2
*D18
 70
    1
 10
0
 20
0
  3
*D18
  1

  0
LINE
  5
D1
100
AcDbEntity
  8
Medidas
  6
ByBlock
 62
    0
370
   -2
100
AcDbLine
 10
137
 20
32
 11
151.1
 21
32
  0
SOLID
  5
D2
100
AcDbEntity
  8
Medidas
  6
ByBlock
 62
    0
370
   -2
100
AcDbTrace
 10
142
 20
32
 30
0
 11
139.5
 21
31.58371534222716
 31
0
 12
139.5
 22
32.41628465777284
 32
0
 13
139.5
 23
32.41628465777284
 33
0
  0
SOLID
  5
D3
100
AcDbEntity
  8
Medidas
  6
ByBlock
 62
    0
370
   -2
100
AcDbTrace
 10
146.1
 20
32
 30
0
 11
148.6
 21
32.41628465777284
 31
0
 12
148.6
 22
31.58371534222716
 32
0
 13
148.6
 23
31.58371534222716
 33
0
  0
MTEXT
  5
D4
100
AcDbEntity
  8
Medidas
  6
CONTINUOUS
 62
    0
370
   -2
100
AcDbMText
 10
149.5027777777778
 20
33.875
 30
0
 40
2.5
 41
5.555555555555555
 71
    5
 72
    1
  1
4.10
  7
standard
210
0
220
0
230
1
 50
0
 73
    2
 44
1
  0
LINE
  5
D5
100
AcDbEntity
  8
Medidas
  6
ByBlock
 62
    0
370
   -2
100
AcDbLine
 10
142
 20
37.375
 11
142
 21
30.75
  0
LINE
  5
D6
100
AcDbEntity
  8
Medidas
  6
ByBlock
 62
    0
370
   -2
100
AcDbLine
 10
146.1
 20
0.625
 11
146.1
 21
33.25
  0
ENDBLK
  5
6D
330
6B
100
AcDbEntity
  8
0
100
AcDbBlockEnd
  0
BLOCK
  5
6F
330
6E
100
AcDbEntity
  8
0
100
AcDbBlockBegin
  2
*D5
 70
    1
 10
0
 20
0
  3
*D5
  1

  0
LINE
  5
D7
100
AcDbEntity
  8
Medidas
  6
ByBlock
 62
    0
370
   -2
100
AcDbLine
 10
136.1
 20
10
 11
151.1
 21
10
  0
SOLID
  5
D8
100
AcDbEntity
  8
Medidas
  6
ByBlock
 62
    0
370
   -2
100
AcDbTrace
 10
141.1
 20
10
 30
0
 11
138.6
 21
9.58371534222716
 31
0
 12
138.6
 22
10.41628465777284
 32
0
 13
138.6
 23
10.41628465777284
 33
0
  0
SOLID
  5
D9
100
AcDbEntity
  8
Medidas
  6
ByBlock
 62
    0
370
   -2
100
AcDbTrace
 10
146.1
 20
10
 30
0
 11
148.6
 21
10.41628465777284
 31
0
 12
148.6
 22
9.583715342227158
 32
0
 13
148.6
 23
9.583715342227158
 33
0
  0
MTEXT
  5
DA
100
AcDbEntity
  8
Medidas
  6
CONTINUOUS
 62
    0
370
   -2
100
AcDbMText
 10
149.6416666666667
 20
11.875
 30
0
 40
2.5
 41
5.833333333333488
 71
    5
 72
    1
  1
5.00
  7
standard
210
0
220
0
230
1
 50
0
 73
    2
 44
1
  0
LINE
  5
DB
100
AcDbEntity
  8
Medidas
  6
ByBlock
 62
    0
370
   -2
100
AcDbLine
 10
141.1
 20
5.625
 11
141.1
 21
11.25
  0
LINE
  5
DC
100
AcDbEntity
  8
Medidas
  6
ByBlock
 62
    0
370
   -2
100
AcDbLine
 10
146.1
 20
0.625
 11
146.1
 21
11.25
  0
ENDBLK
  5
70
330
6E
100
AcDbEntity
  8
0
100
AcDbBlockEnd
  0
BLOCK
  5
72
330
71
100
AcDbEntity
  8
0
100
AcDbBlockBegin
  2
*D6
 70
    1
 10
0
 20
0
  3
*D6
  1

  0
LINE
  5
DD
100
AcDbEntity
  8
Medidas
  6
ByBlock
 62
    0
370
   -2
100
AcDbLine
 10
111.45
 20
107
 11
146.1
 21
107
  0
SOLID
  5
DE
100
AcDbEntity
  8
Medidas
  6
ByBlock
 62
    0
370
   -2
100
AcDbTrace
 10
111.45
 20
107
 30
0
 11
113.95
 21
107.4162846577728
 31
0
 12
113.95
 22
106.5837153422272
 32
0
 13
113.95
 23
106.5837153422272
 33
0
  0
SOLID
  5
DF
100
AcDbEntity
  8
Medidas
  6
ByBlock
 62
    0
370
   -2
100
AcDbTrace
 10
146.1
 20
107
 30
0
 11
143.6
 21
106.5837153422272
 31
0
 12
143.6
 22
107.4162846577728
 32
0
 13
143.6
 23
107.4162846577728
 33
0
  0
MTEXT
  5
E0
100
AcDbEntity
  8
Medidas
  6
CONTINUOUS
 62
    0
370
   -2
100
AcDbMText
 10
128.775
 20
108.875
 30
0
 40
2.5
 41
8.055555555556021
 71
    5
 72
    1
  1
34.65
  7
standard
210
0
220
0
230
1
 50
0
 73
    2
 44
1
  0
LINE
  5
E1
100
AcDbEntity
  8
Medidas
  6
ByBlock
 62
    0
370
   -2
100
AcDbLine
 10
111.45
 20
113.875
 11
111.45
 21
105.75
  0
LINE
  5
E2
100
AcDbEntity
  8
Medidas
  6
ByBlock
 62
    0
370
   -2
100
AcDbLine
 10
146.1
 20
118.875
 11
146.1
 21
105.75
  0
ENDBLK
  5
73
330
71
100
AcDbEntity
  8
0
100
AcDbBlockEnd
  0
BLOCK
  5
75
330
74
100
AcDbEntity
  8
0
100
AcDbBlockBegin
  2
*D20
 70
    1
 10
0
 20
0
  3
*D20
  1

  0
LINE
  5
E3
100
AcDbEntity
  8
Medidas
  6
ByBlock
 62
    0
370
   -2
100
AcDbLine
 10
154
 20
53.5
 11
154
 21
0
  0
SOLID
  5
E4
100
AcDbEntity
  8
Medidas
  6
ByBlock
 62
    0
370
   -2
100
AcDbTrace
 10
154
 20
53.5
 30
0
 11
154.4162846577728
 21
51
 31
0
 12
153.5837153422272
 22
51
 32
0
 13
153.5837153422272
 23
51
 33
0
  0
SOLID
  5
E5
100
AcDbEntity
  8
Medidas
  6
ByBlock
 62
    0
370
   -2
100
AcDbTrace
 10
154
 20
0
 30
0
 11
153.5837153422272
 21
2.5
 31
0
 12
154.4162846577728
 22
2.5
 32
0
 13
154.4162846577728
 23
2.5
 33
0
  0
MTEXT
  5
E6
100
AcDbEntity
  8
Medidas
  6
CONTINUOUS
 62
    0
370
   -2
100
AcDbMText
 10
152.125
 20
26.75
 30
0
 40
2.5
 41
7.777777777778243
 71
    5
 72
    1
  1
53.50
  7
standard
210
0
220
0
230
1
 50
90
 73
    2
 44
1
  0
LINE
  5
E7
100
AcDbEntity
  8
Medidas
  6
ByBlock
 62
    0
370
   -2
100
AcDbLine
 10
142.725
 20
53.5
 11
155.25
 21
53.5
  0
LINE
  5
E8
100
AcDbEntity
  8
Medidas
  6
ByBlock
 62
    0
370
   -2
100
AcDbLine
 10
146.725
 20
0
 11
155.25
 21
0
  0
ENDBLK
  5
76
330
74
100
AcDbEntity
  8
0
100
AcDbBlockEnd
  0
BLOCK
  5
78
330
77
100
AcDbEntity
  8
0
100
AcDbBlockBegin
  2
*D4
 70
    1
 10
0
 20
0
  3
*D4
  1

  0
LINE
  5
E9
100
AcDbEntity
  8
Medidas
  6
ByBlock
 62
    0
370
   -2
100
AcDbLine
 10
10
 20
10
 11
-5
 21
10
  0
SOLID
  5
EA
100
AcDbEntity
  8
Medidas
  6
ByBlock
 62
    0
370
   -2
100
AcDbTrace
 10
4.999999999999999
 20
10
 30
0
 11
7.499999999999999
 21
10.41628465777284
 31
0
 12
7.499999999999999
 22
9.583715342227158
 32
0
 13
7.499999999999999
 23
9.583715342227158
 33
0
  0
SOLID
  5
EB
100
AcDbEntity
  8
Medidas
  6
ByBlock
 62
    0
370
   -2
100
AcDbTrace
 10
0
 20
10
 30
0
 11
-2.5
 21
9.58371534222716
 31
0
 12
-2.5
 22
10.41628465777284
 32
0
 13
-2.5
 23
10.41628465777284
 33
0
  0
MTEXT
  5
EC
100
AcDbEntity
  8
Medidas
  6
CONTINUOUS
 62
    0
370
   -2
100
AcDbMText
 10
8.541666666666744
 20
11.875
 30
0
 40
2.5
 41
5.833333333333488
 71
    5
 72
    1
  1
5.00
  7
standard
210
0
220
0
230
1
 50
360
 73
    2
 44
1
  0
LINE
  5
ED
100
AcDbEntity
  8
Medidas
  6
ByBlock
 62
    0
370
   -2
100
AcDbLine
 10
5
 20
5.625
 11
4.999999999999999
 21
11.25
  0
LINE
  5
EE
100
AcDbEntity
  8
Medidas
  6
ByBlock
 62
    0
370
   -2
100
AcDbLine
 10
3.826894855694929e-017
 20
0.625
 11
7.653789711389858e-017
 21
11.25
  0
ENDBLK
  5
79
330
77
100
AcDbEntity
  8
0
100
AcDbBlockEnd
  0
BLOCK
  5
7B
330
7A
100
AcDbEntity
  8
0
100
AcDbBlockBegin
  2
*D21
 70
    1
 10
0
 20
0
  3
*D21
  1

  0
LINE
  5
EF
100
AcDbEntity
  8
Medidas
  6
ByBlock
 62
    0
370
   -2
100
AcDbLine
 10
13
 20
17
 11
-1.77635683940025e-015
 21
17
  0
SOLID
  5
F0
100
AcDbEntity
  8
Medidas
  6
ByBlock
 62
    0
370
   -2
100
AcDbTrace
 10
13
 20
17
 30
0
 11
10.5
 21
16.58371534222716
 31
0
 12
10.5
 22
17.41628465777284
 32
0
 13
10.5
 23
17.41628465777284
 33
0
  0
SOLID
  5
F1
100
AcDbEntity
  8
Medidas
  6
ByBlock
 62
    0
370
   -2
100
AcDbTrace
 10
-1.77635683940025e-015
 20
17
 30
0
 11
2.499999999999998
 21
17.41628465777284
 31
0
 12
2.499999999999998
 22
16.58371534222716
 32
0
 13
2.499999999999998
 23
16.58371534222716
 33
0
  0
MTEXT
  5
F2
100
AcDbEntity
  8
Medidas
  6
CONTINUOUS
 62
    0
370
   -2
100
AcDbMText
 10
6.5
 20
18.875
 30
0
 40
2.5
 41
7.222222222222378
 71
    5
 72
    1
  1
13.00
  7
standard
210
0
220
0
230
1
 50
360
 73
    2
 44
1
  0
LINE
  5
F3
100
AcDbEntity
  8
Medidas
  6
ByBlock
 62
    0
370
   -2
100
AcDbLine
 10
13
 20
6.975
 11
13
 21
18.25
  0
LINE
  5
F4
100
AcDbEntity
  8
Medidas
  6
ByBlock
 62
    0
370
   -2
100
AcDbLine
 10
-1.891163685071098e-015
 20
20.375
 11
-2.005970530741946e-015
 21
15.75
  0
ENDBLK
  5
7C
330
7A
100
AcDbEntity
  8
0
100
AcDbBlockEnd
  0
BLOCK
  5
7E
330
7D
100
AcDbEntity
  8
0
100
AcDbBlockBegin
  2
*D13
 70
    1
 10
0
 20
0
  3
*D13
  1

  0
LINE
  5
F5
100
AcDbEntity
  8
Medidas
  6
ByBlock
 62
    0
370
   -2
100
AcDbLine
 10
160
 20
119.5
 11
160
 21
1.97215226305253e-031
  0
SOLID
  5
F6
100
AcDbEntity
  8
Medidas
  6
ByBlock
 62
    0
370
   -2
100
AcDbTrace
 10
160
 20
119.5
 30
0
 11
160.4162846577728
 21
117
 31
0
 12
159.5837153422272
 22
117
 32
0
 13
159.5837153422272
 23
117
 33
0
  0
SOLID
  5
F7
100
AcDbEntity
  8
Medidas
  6
ByBlock
 62
    0
370
   -2
100
AcDbTrace
 10
160
 20
1.97215226305253e-031
 30
0
 11
159.5837153422272
 21
2.5
 31
0
 12
160.4162846577728
 22
2.5
 32
0
 13
160.4162846577728
 23
2.5
 33
0
  0
MTEXT
  5
F8
100
AcDbEntity
  8
Medidas
  6
CONTINUOUS
 62
    0
370
   -2
100
AcDbMText
 10
158.125
 20
59.75
 30
0
 40
2.5
 41
8.611111111111267
 71
    5
 72
    1
  1
119.50
  7
standard
210
0
220
0
230
1
 50
90
 73
    2
 44
1
  0
LINE
  5
F9
100
AcDbEntity
  8
Medidas
  6
ByBlock
 62
    0
370
   -2
100
AcDbLine
 10
146.725
 20
119.5
 11
161.25
 21
119.5
  0
LINE
  5
FA
100
AcDbEntity
  8
Medidas
  6
ByBlock
 62
    0
370
   -2
100
AcDbLine
 10
146.725
 20
0
 11
161.25
 21
1.97215226305253e-031
  0
ENDBLK
  5
7F
330
7D
100
AcDbEntity
  8
0
100
AcDbBlockEnd
  0
BLOCK
  5
81
330
80
100
AcDbEntity
  8
0
100
AcDbBlockBegin
  2
*D3
 70
    1
 10
0
 20
0
  3
*D3
  1

  0
LINE
  5
FB
100
AcDbEntity
  8
Medidas
  6
ByBlock
 62
    0
370
   -2
100
AcDbLine
 10
-30
 20
87
 11
-30
 21
21
  0
SOLID
  5
FC
100
AcDbEntity
  8
Medidas
  6
ByBlock
 62
    0
370
   -2
100
AcDbTrace
 10
-30
 20
87
 30
0
 11
-29.58371534222715
 21
84.5
 31
0
 12
-30.41628465777284
 22
84.5
 32
0
 13
-30.41628465777284
 23
84.5
 33
0
  0
SOLID
  5
FD
100
AcDbEntity
  8
Medidas
  6
ByBlock
 62
    0
370
   -2
100
AcDbTrace
 10
-30
 20
21
 30
0
 11
-30.41628465777284
 21
23.5
 31
0
 12
-29.58371534222716
 22
23.5
 32
0
 13
-29.58371534222716
 23
23.5
 33
0
  0
MTEXT
  5
FE
100
AcDbEntity
  8
Medidas
  6
CONTINUOUS
 62
    0
370
   -2
100
AcDbMText
 10
-31.875
 20
54
 30
0
 40
2.5
 41
7.777777777778088
 71
    5
 72
    1
  1
66.00
  7
standard
210
0
220
0
230
1
 50
90
 73
    2
 44
1
  0
LINE
  5
FF
100
AcDbEntity
  8
Medidas
  6
ByBlock
 62
    0
370
   -2
100
AcDbLine
 10
-9.625000000000002
 20
87
 11
-31.25
 21
87
  0
LINE
  5
100
100
AcDbEntity
  8
Medidas
  6
ByBlock
 62
    0
370
   -2
100
AcDbLine
 10
-9.625000000000002
 20
21
 11
-31.25
 21
21
  0
ENDBLK
  5
82
330
80
100
AcDbEntity
  8
0
100
AcDbBlockEnd
  0
BLOCK
  5
84
330
83
100
AcDbEntity
  8
0
100
AcDbBlockBegin
  2
*D15
 70
    1
 10
0
 20
0
  3
*D15
  1

  0
LINE
  5
101
100
AcDbEntity
  8
Medidas
  6
ByBlock
 62
    0
370
   -2
100
AcDbLine
 10
87.09999999999999
 20
90
 11
101.1
 21
90
  0
SOLID
  5
102
100
AcDbEntity
  8
Medidas
  6
ByBlock
 62
    0
370
   -2
100
AcDbTrace
 10
87.09999999999999
 20
90
 30
0
 11
89.59999999999999
 21
90.41628465777283
 31
0
 12
89.59999999999999
 22
89.58371534222717
 32
0
 13
89.59999999999999
 23
89.58371534222717
 33
0
  0
SOLID
  5
103
100
AcDbEntity
  8
Medidas
  6
ByBlock
 62
    0
370
   -2
100
AcDbTrace
 10
101.1
 20
90
 30
0
 11
98.59999999999999
 21
89.58371534222717
 31
0
 12
98.59999999999999
 22
90.41628465777283
 32
0
 13
98.59999999999999
 23
90.41628465777283
 33
0
  0
MTEXT
  5
104
100
AcDbEntity
  8
Medidas
  6
CONTINUOUS
 62
    0
370
   -2
100
AcDbMText
 10
94.09999999999999
 20
91.875
 30
0
 40
2.5
 41
7.5
 71
    5
 72
    1
  1
14.00
  7
standard
210
0
220
0
230
1
 50
0
 73
    2
 44
1
  0
LINE
  5
105
100
AcDbEntity
  8
Medidas
  6
ByBlock
 62
    0
370
   -2
100
AcDbLine
 10
87.09999999999999
 20
110.875
 11
87.09999999999999
 21
88.75
  0
LINE
  5
106
100
AcDbEntity
  8
Medidas
  6
ByBlock
 62
    0
370
   -2
100
AcDbLine
 10
101.1
 20
110.875
 11
101.1
 21
88.75
  0
ENDBLK
  5
85
330
83
100
AcDbEntity
  8
0
100
AcDbBlockEnd
  0
BLOCK
  5
87
330
86
100
AcDbEntity
  8
0
100
AcDbBlockBegin
  2
*D1
 70
    1
 10
0
 20
0
  3
*D1
  1

  0
LINE
  5
107
100
AcDbEntity
  8
Medidas
  6
ByBlock
 62
    0
370
   -2
100
AcDbLine
 10
0
 20
130
 11
146.1
 21
130
  0
SOLID
  5
108
100
AcDbEntity
  8
Medidas
  6
ByBlock
 62
    0
370
   -2
100
AcDbTrace
 10
0
 20
130
 30
0
 11
2.5
 21
130.4162846577728
 31
0
 12
2.5
 22
129.5837153422272
 32
0
 13
2.5
 23
129.5837153422272
 33
0
  0
SOLID
  5
109
100
AcDbEntity
  8
Medidas
  6
ByBlock
 62
    0
370
   -2
100
AcDbTrace
 10
146.1
 20
130
 30
0
 11
143.6
 21
129.5837153422272
 31
0
 12
143.6
 22
130.4162846577728
 32
0
 13
143.6
 23
130.4162846577728
 33
0
  0
MTEXT
  5
10A
100
AcDbEntity
  8
Medidas
  6
CONTINUOUS
 62
    0
370
   -2
100
AcDbMText
 10
73.05
 20
131.875
 30
0
 40
2.5
 41
8.888888888889046
 71
    5
 72
    1
  1
146.10
  7
standard
210
0
220
0
230
1
 50
0
 73
    2
 44
1
  0
LINE
  5
10B
100
AcDbEntity
  8
Medidas
  6
ByBlock
 62
    0
370
   -2
100
AcDbLine
 10
3.826894855694929e-017
 20
120.625
 11
7.653789711389858e-017
 21
131.25
  0
LINE
  5
10C
100
AcDbEntity
  8
Medidas
  6
ByBlock
 62
    0
370
   -2
100
AcDbLine
 10
146.1
 20
120.125
 11
146.1
 21
131.25
  0
ENDBLK
  5
88
330
86
100
AcDbEntity
  8
0
100
AcDbBlockEnd
  0
BLOCK
  5
8A
330
89
100
AcDbEntity
  8
0
100
AcDbBlockBegin
  2
*D7
 70
    1
 10
0
 20
0
  3
*D7
  1

  0
LINE
  5
10D
100
AcDbEntity
  8
Medidas
  6
ByBlock
 62
    0
370
   -2
100
AcDbLine
 10
10
 20
105
 11
-5
 21
105
  0
SOLID
  5
10E
100
AcDbEntity
  8
Medidas
  6
ByBlock
 62
    0
370
   -2
100
AcDbTrace
 10
5.000000000000001
 20
105
 30
0
 11
7.500000000000001
 21
105.4162846577728
 31
0
 12
7.500000000000001
 22
104.5837153422272
 32
0
 13
7.500000000000001
 23
104.5837153422272
 33
0
  0
SOLID
  5
10F
100
AcDbEntity
  8
Medidas
  6
ByBlock
 62
    0
370
   -2
100
AcDbTrace
 10
0
 20
105
 30
0
 11
-2.5
 21
104.5837153422272
 31
0
 12
-2.5
 22
105.4162846577728
 32
0
 13
-2.5
 23
105.4162846577728
 33
0
  0
MTEXT
  5
110
100
AcDbEntity
  8
Medidas
  6
CONTINUOUS
 62
    0
370
   -2
100
AcDbMText
 10
8.541666666666744
 20
106.875
 30
0
 40
2.5
 41
5.833333333333488
 71
    5
 72
    1
  1
5.00
  7
standard
210
0
220
0
230
1
 50
360
 73
    2
 44
1
  0
LINE
  5
111
100
AcDbEntity
  8
Medidas
  6
ByBlock
 62
    0
370
   -2
100
AcDbLine
 10
5
 20
113.875
 11
5.000000000000001
 21
103.75
  0
LINE
  5
112
100
AcDbEntity
  8
Medidas
  6
ByBlock
 62
    0
370
   -2
100
AcDbLine
 10
-1.148068456708479e-016
 20
118.375
 11
-2.296136913416957e-016
 21
103.75
  0
ENDBLK
  5
8B
330
89
100
AcDbEntity
  8
0
100
AcDbBlockEnd
  0
BLOCK
  5
8D
330
8C
100
AcDbEntity
  8
0
100
AcDbBlockBegin
  2
*D10
 70
    1
 10
0
 20
0
  3
*D10
  1

  0
LINE
  5
113
100
AcDbEntity
  8
Medidas
  6
ByBlock
 62
    0
370
   -2
100
AcDbLine
 10
134
 20
10
 11
134
 21
-5
  0
SOLID
  5
114
100
AcDbEntity
  8
Medidas
  6
ByBlock
 62
    0
370
   -2
100
AcDbTrace
 10
134
 20
5
 30
0
 11
133.5837153422272
 21
7.5
 31
0
 12
134.4162846577728
 22
7.5
 32
0
 13
134.4162846577728
 23
7.5
 33
0
  0
SOLID
  5
115
100
AcDbEntity
  8
Medidas
  6
ByBlock
 62
    0
370
   -2
100
AcDbTrace
 10
134
 20
-1.97215226305253e-031
 30
0
 11
134.4162846577728
 21
-2.5
 31
0
 12
133.5837153422272
 22
-2.5
 32
0
 13
133.5837153422272
 23
-2.5
 33
0
  0
MTEXT
  5
116
100
AcDbEntity
  8
Medidas
  6
CONTINUOUS
 62
    0
370
   -2
100
AcDbMText
 10
132.125
 20
8.541666666666744
 30
0
 40
2.5
 41
5.833333333333488
 71
    5
 72
    1
  1
5.00
  7
standard
210
0
220
0
230
1
 50
90
 73
    2
 44
1
  0
LINE
  5
117
100
AcDbEntity
  8
Medidas
  6
ByBlock
 62
    0
370
   -2
100
AcDbLine
 10
140.475
 20
5
 11
132.75
 21
5
  0
LINE
  5
118
100
AcDbEntity
  8
Medidas
  6
ByBlock
 62
    0
370
   -2
100
AcDbLine
 10
145.375
 20
7.653789711389858e-017
 11
132.75
 21
1.53075794227797e-016
  0
ENDBLK
  5
8E
330
8C
100
AcDbEntity
  8
0
100
AcDbBlockEnd
  0
BLOCK
  5
90
330
8F
100
AcDbEntity
  8
0
100
AcDbBlockBegin
  2
*D11
 70
    1
 10
0
 20
0
  3
*D11
  1

  0
LINE
  5
119
100
AcDbEntity
  8
Medidas
  6
ByBlock
 62
    0
370
   -2
100
AcDbLine
 10
-6
 20
10
 11
-6
 21
-5
  0
SOLID
  5
11A
100
AcDbEntity
  8
Medidas
  6
ByBlock
 62
    0
370
   -2
100
AcDbTrace
 10
-6
 20
5.000000000000001
 30
0
 11
-6.41628465777284
 21
7.500000000000001
 31
0
 12
-5.583715342227159
 22
7.500000000000001
 32
0
 13
-5.583715342227159
 23
7.500000000000001
 33
0
  0
SOLID
  5
11B
100
AcDbEntity
  8
Medidas
  6
ByBlock
 62
    0
370
   -2
100
AcDbTrace
 10
-6
 20
3.730349362740526e-016
 30
0
 11
-5.583715342227159
 21
-2.5
 31
0
 12
-6.416284657772841
 22
-2.5
 32
0
 13
-6.416284657772841
 23
-2.5
 33
0
  0
MTEXT
  5
11C
100
AcDbEntity
  8
Medidas
  6
CONTINUOUS
 62
    0
370
   -2
100
AcDbMText
 10
-7.875
 20
8.541666666666744
 30
0
 40
2.5
 41
5.833333333333488
 71
    5
 72
    1
  1
5.00
  7
standard
210
0
220
0
230
1
 50
90
 73
    2
 44
1
  0
LINE
  5
11D
100
AcDbEntity
  8
Medidas
  6
ByBlock
 62
    0
370
   -2
100
AcDbLine
 10
4.375
 20
5
 11
-7.25
 21
5.000000000000001
  0
LINE
  5
11E
100
AcDbEntity
  8
Medidas
  6
ByBlock
 62
    0
370
   -2
100
AcDbLine
 10
-0.625
 20
7.653789711389858e-017
 11
-7.25
 21
5.261107305018497e-016
  0
ENDBLK
  5
91
330
8F
100
AcDbEntity
  8
0
100
AcDbBlockEnd
  0
BLOCK
  5
93
330
92
100
AcDbEntity
  8
0
100
AcDbBlockBegin
  2
*D14
 70
    1
 10
0
 20
0
  3
*D14
  1

  0
LINE
  5
11F
100
AcDbEntity
  8
Medidas
  6
ByBlock
 62
    0
370
   -2
100
AcDbLine
 10
101.1
 20
90
 11
146.1
 21
90
  0
SOLID
  5
120
100
AcDbEntity
  8
Medidas
  6
ByBlock
 62
    0
370
   -2
100
AcDbTrace
 10
101.1
 20
90
 30
0
 11
103.6
 21
90.41628465777283
 31
0
 12
103.6
 22
89.58371534222717
 32
0
 13
103.6
 23
89.58371534222717
 33
0
  0
SOLID
  5
121
100
AcDbEntity
  8
Medidas
  6
ByBlock
 62
    0
370
   -2
100
AcDbTrace
 10
146.1
 20
90
 30
0
 11
143.6
 21
89.58371534222717
 31
0
 12
143.6
 22
90.41628465777283
 32
0
 13
143.6
 23
90.41628465777283
 33
0
  0
MTEXT
  5
122
100
AcDbEntity
  8
Medidas
  6
CONTINUOUS
 62
    0
370
   -2
100
AcDbMText
 10
123.6
 20
91.875
 30
0
 40
2.5
 41
8.055555555555712
 71
    5
 72
    1
  1
45.00
  7
standard
210
0
220
0
230
1
 50
0
 73
    2
 44
1
  0
LINE
  5
123
100
AcDbEntity
  8
Medidas
  6
ByBlock
 62
    0
370
   -2
100
AcDbLine
 10
101.1
 20
110.875
 11
101.1
 21
88.75
  0
LINE
  5
124
100
AcDbEntity
  8
Medidas
  6
ByBlock
 62
    0
370
   -2
100
AcDbLine
 10
146.1
 20
118.875
 11
146.1
 21
88.75
  0
ENDBLK
  5
94
330
92
100
AcDbEntity
  8
0
100
AcDbBlockEnd
  0
BLOCK
  5
96
330
95
100
AcDbEntity
  8
0
100
AcDbBlockBegin
  2
*D17
 70
    1
 10
0
 20
0
  3
*D17
  1

  0
LINE
  5
125
100
AcDbEntity
  8
Medidas
  6
ByBlock
 62
    0
370
   -2
100
AcDbLine
 10
45
 20
111
 11
45
 21
119.5
  0
SOLID
  5
126
100
AcDbEntity
  8
Medidas
  6
ByBlock
 62
    0
370
   -2
100
AcDbTrace
 10
45
 20
111
 30
0
 11
44.58371534222716
 21
113.5
 31
0
 12
45.41628465777284
 22
113.5
 32
0
 13
45.41628465777284
 23
113.5
 33
0
  0
SOLID
  5
127
100
AcDbEntity
  8
Medidas
  6
ByBlock
 62
    0
370
   -2
100
AcDbTrace
 10
45
 20
119.5
 30
0
 11
45.41628465777284
 21
117
 31
0
 12
44.58371534222716
 22
117
 32
0
 13
44.58371534222716
 23
117
 33
0
  0
MTEXT
  5
128
100
AcDbEntity
  8
Medidas
  6
CONTINUOUS
 62
    0
370
   -2
100
AcDbMText
 10
43.125
 20
115.25
 30
0
 40
2.5
 41
5.833333333333489
 71
    5
 72
    1
  1
8.50
  7
standard
210
0
220
0
230
1
 50
90
 73
    2
 44
1
  0
LINE
  5
129
100
AcDbEntity
  8
Medidas
  6
ByBlock
 62
    0
370
   -2
100
AcDbLine
 10
50.375
 20
111
 11
43.75
 21
111
  0
LINE
  5
12A
100
AcDbEntity
  8
Medidas
  6
ByBlock
 62
    0
370
   -2
100
AcDbLine
 10
0.625
 20
119.5
 11
46.25
 21
119.5
  0
ENDBLK
  5
97
330
95
100
AcDbEntity
  8
0
100
AcDbBlockEnd
  0
BLOCK
  5
99
330
98
100
AcDbEntity
  8
0
100
AcDbBlockBegin
  2
*D19
 70
    1
 10
0
 20
0
  3
*D19
  1

  0
LINE
  5
12B
100
AcDbEntity
  8
Medidas
  6
ByBlock
 62
    0
370
   -2
100
AcDbLine
 10
154
 20
71.09999999999999
 11
154
 21
119.5
  0
SOLID
  5
12C
100
AcDbEntity
  8
Medidas
  6
ByBlock
 62
    0
370
   -2
100
AcDbTrace
 10
154
 20
71.09999999999999
 30
0
 11
153.5837153422272
 21
73.59999999999999
 31
0
 12
154.4162846577728
 22
73.59999999999999
 32
0
 13
154.4162846577728
 23
73.59999999999999
 33
0
  0
SOLID
  5
12D
100
AcDbEntity
  8
Medidas
  6
ByBlock
 62
    0
370
   -2
100
AcDbTrace
 10
154
 20
119.5
 30
0
 11
154.4162846577728
 21
117
 31
0
 12
153.5837153422272
 22
117
 32
0
 13
153.5837153422272
 23
117
 33
0
  0
MTEXT
  5
12E
100
AcDbEntity
  8
Medidas
  6
CONTINUOUS
 62
    0
370
   -2
100
AcDbMText
 10
152.125
 20
95.3
 30
0
 40
2.5
 41
8.333333333333334
 71
    5
 72
    1
  1
48.40
  7
standard
210
0
220
0
230
1
 50
90
 73
    2
 44
1
  0
LINE
  5
12F
100
AcDbEntity
  8
Medidas
  6
ByBlock
 62
    0
370
   -2
100
AcDbLine
 10
142.725
 20
71.09999999999999
 11
155.25
 21
71.09999999999999
  0
LINE
  5
130
100
AcDbEntity
  8
Medidas
  6
ByBlock
 62
    0
370
   -2
100
AcDbLine
 10
146.725
 20
119.5
 11
155.25
 21
119.5
  0
ENDBLK
  5
9A
330
98
100
AcDbEntity
  8
0
100
AcDbBlockEnd
  0
ENDSEC
  0
SECTION
  2
ENTITIES
  0
LINE
  5
131
100
AcDbEntity
  8
Ffab
  6
ByLayer
 62
  256
370
   -1
100
AcDbLine
 10
0
 20
84.5
 11
-8
 21
84.5
  0
LINE
  5
132
100
AcDbEntity
  8
Ffab
  6
ByLayer
 62
  256
370
   -1
100
AcDbLine
 10
101.1
 20
119.5
 11
101.1
 21
111.5
  0
LINE
  5
133
100
AcDbEntity
  8
Ffab
  6
ByLayer
 62
  256
370
   -1
100
AcDbLine
 10
87.09999999999999
 20
119.5
 11
87.09999999999999
 21
111.5
  0
LINE
  5
134
100
AcDbEntity
  8
Ffab
  6
ByLayer
 62
  256
370
   -1
100
AcDbLine
 10
51
 20
111
 11
60.525
 21
111
  0
LINE
  5
135
100
AcDbEntity
  8
Ffab
  6
ByLayer
 62
  256
370
   -1
100
AcDbLine
 10
13
 20
6.35
 11
48.56
 21
6.35
  0
LINE
  5
136
100
AcDbEntity
  8
Ffab
  6
ByLayer
 62
  256
370
   -1
100
AcDbLine
 10
142.1
 20
71.09999999999999
 11
142.1
 21
60.94
  0
LINE
  5
137
100
AcDbEntity
  8
Ffab
  6
ByLayer
 62
  256
370
   -1
100
AcDbLine
 10
142.1
 20
53.5
 11
142.1
 21
37.625
  0
DIMENSION
  5
138
100
AcDbEntity
  8
Medidas
  6
ByLayer
 62
  256
370
   -1
100
AcDbDimension
  2
*D1
 10
146.1
 20
130
 30
0
 11
73.05
 21
131.875
 31
0
 70
   32
 71
    5
  3
Standard
 53
0
210
0
220
0
230
1
100
AcDbAlignedDimension
 13
0
 23
120
 33
0
 14
146.1
 24
119.5
 34
0
100
AcDbRotatedDimension
  0
DIMENSION
  5
139
100
AcDbEntity
  8
Medidas
  6
ByLayer
 62
  256
370
   -1
100
AcDbDimension
  2
*D2
 10
-30
 20
120
 30
0
 11
-31.875
 21
103.5
 31
0
 70
   32
 71
    5
  3
Standard
 53
0
210
0
220
0
230
1
100
AcDbAlignedDimension
 13
-9.000000000000002
 23
87
 33
0
 14
0
 24
120
 34
0
 50
90
100
AcDbRotatedDimension
  0
DIMENSION
  5
13A
100
AcDbEntity
  8
Medidas
  6
ByLayer
 62
  256
370
   -1
100
AcDbDimension
  2
*D3
 10
-30
 20
21
 30
0
 11
-31.875
 21
54
 31
0
 70
   32
 71
    5
  3
Standard
 53
0
210
0
220
0
230
1
100
AcDbAlignedDimension
 13
-9.000000000000002
 23
87
 33
0
 14
-9.000000000000002
 24
21
 34
0
 50
90
100
AcDbRotatedDimension
  0
DIMENSION
  5
13B
100
AcDbEntity
  8
Medidas
  6
ByLayer
 62
  256
370
   -1
100
AcDbDimension
  2
*D4
 10
6.123031769111886e-016
 20
10
 30
0
 11
2.5
 21
11.875
 31
0
 70
   32
 71
    5
  3
Standard
 53
0
210
0
220
0
230
1
100
AcDbAlignedDimension
 13
5
 23
5
 33
0
 14
0
 24
0
 34
0
100
AcDbRotatedDimension
  0
DIMENSION
  5
13C
100
AcDbEntity
  8
Medidas
  6
ByLayer
 62
  256
370
   -1
100
AcDbDimension
  2
*D5
 10
146.1
 20
10
 30
0
 11
143.6
 21
11.875
 31
0
 70
   32
 71
    5
  3
Standard
 53
0
210
0
220
0
230
1
100
AcDbAlignedDimension
 13
141.1
 23
5
 33
0
 14
146.1
 24
0
 34
0
100
AcDbRotatedDimension
  0
DIMENSION
  5
13D
100
AcDbEntity
  8
Medidas
  6
ByLayer
 62
  256
370
   -1
100
AcDbDimension
  2
*D6
 10
146.1
 20
107
 30
0
 11
128.775
 21
108.875
 31
0
 70
   32
 71
    5
  3
Standard
 53
0
210
0
220
0
230
1
100
AcDbAlignedDimension
 13
111.45
 23
114.5
 33
0
 14
146.1
 24
119.5
 34
0
100
AcDbRotatedDimension
  0
DIMENSION
  5
13E
100
AcDbEntity
  8
Medidas
  6
ByLayer
 62
  256
370
   -1
100
AcDbDimension
  2
*D7
 10
-8.572244476756641e-016
 20
105
 30
0
 11
2.5
 21
106.875
 31
0
 70
   32
 71
    5
  3
Standard
 53
0
210
0
220
0
230
1
100
AcDbAlignedDimension
 13
5
 23
114.5
 33
0
 14
0
 24
119
 34
0
100
AcDbRotatedDimension
  0
DIMENSION
  5
13F
100
AcDbEntity
  8
Medidas
  6
ByLayer
 62
  256
370
   -1
100
AcDbDimension
  2
*D8
 10
11
 20
119.5
 30
0
 11
9.125
 21
117
 31
0
 70
   32
 71
    5
  3
Standard
 53
0
210
0
220
0
230
1
100
AcDbAlignedDimension
 13
5
 23
114.5
 33
0
 14
0
 24
119.5
 34
0
 50
90
100
AcDbRotatedDimension
  0
DIMENSION
  5
140
100
AcDbEntity
  8
Medidas
  6
ByLayer
 62
  256
370
   -1
100
AcDbDimension
  2
*D9
 10
117
 20
119.5
 30
0
 11
115.125
 21
117
 31
0
 70
   32
 71
    5
  3
Standard
 53
0
210
0
220
0
230
1
100
AcDbAlignedDimension
 13
111.45
 23
114.5
 33
0
 14
146.1
 24
119.5
 34
0
 50
90
100
AcDbRotatedDimension
  0
DIMENSION
  5
141
100
AcDbEntity
  8
Medidas
  6
ByLayer
 62
  256
370
   -1
100
AcDbDimension
  2
*D10
 10
134
 20
1.469527624586853e-015
 30
0
 11
132.125
 21
2.5
 31
0
 70
   32
 71
    5
  3
Standard
 53
0
210
0
220
0
230
1
100
AcDbAlignedDimension
 13
141.1
 23
5
 33
0
 14
146
 24
0
 34
0
 50
90
100
AcDbRotatedDimension
  0
DIMENSION
  5
142
100
AcDbEntity
  8
Medidas
  6
ByLayer
 62
  256
370
   -1
100
AcDbDimension
  2
*D11
 10
-6
 20
7.347638122934264e-016
 30
0
 11
-7.875
 21
2.5
 31
0
 70
   32
 71
    5
  3
Standard
 53
0
210
0
220
0
230
1
100
AcDbAlignedDimension
 13
5
 23
5
 33
0
 14
0
 24
0
 34
0
 50
90
100
AcDbRotatedDimension
  0
DIMENSION
  5
143
100
AcDbEntity
  8
Medidas
  6
ByLayer
 62
  256
370
   -1
100
AcDbDimension
  2
*D12
 10
-30
 20
3.673819061467132e-015
 30
0
 11
-31.875
 21
10.5
 31
0
 70
   32
 71
    5
  3
Standard
 53
0
210
0
220
0
230
1
100
AcDbAlignedDimension
 13
-9.000000000000002
 23
21
 33
0
 14
0
 24
0
 34
0
 50
90
100
AcDbRotatedDimension
  0
DIMENSION
  5
144
100
AcDbEntity
  8
Medidas
  6
ByLayer
 62
  256
370
   -1
100
AcDbDimension
  2
*D13
 10
160
 20
-1.702202831813105e-015
 30
0
 11
158.125
 21
59.75
 31
0
 70
   32
 71
    5
  3
Standard
 53
0
210
0
220
0
230
1
100
AcDbAlignedDimension
 13
146.1
 23
119.5
 33
0
 14
146.1
 24
0
 34
0
 50
90
100
AcDbRotatedDimension
  0
DIMENSION
  5
145
100
AcDbEntity
  8
Medidas
  6
ByLayer
 62
  256
370
   -1
100
AcDbDimension
  2
*D14
 10
146.1
 20
90
 30
0
 11
123.6
 21
91.875
 31
0
 70
   32
 71
    5
  3
Standard
 53
0
210
0
220
0
230
1
100
AcDbAlignedDimension
 13
101.1
 23
111.5
 33
0
 14
146.1
 24
119.5
 34
0
100
AcDbRotatedDimension
  0
DIMENSION
  5
146
100
AcDbEntity
  8
Medidas
  6
ByLayer
 62
  256
370
   -1
100
AcDbDimension
  2
*D15
 10
101.1
 20
90
 30
0
 11
94.09999999999999
 21
91.875
 31
0
 70
   32
 71
    5
  3
Standard
 53
0
210
0
220
0
230
1
100
AcDbAlignedDimension
 13
87.09999999999999
 23
111.5
 33
0
 14
101.1
 24
111.5
 34
0
100
AcDbRotatedDimension
  0
DIMENSION
  5
147
100
AcDbEntity
  8
Medidas
  6
ByLayer
 62
  256
370
   -1
100
AcDbDimension
  2
*D16
 10
-1.193991194976818e-015
 20
100
 30
0
 11
25.5
 21
101.875
 31
0
 70
   32
 71
    5
  3
Standard
 53
0
210
0
220
0
230
1
100
AcDbAlignedDimension
 13
51
 23
111
 33
0
 14
0
 24
119.5
 34
0
100
AcDbRotatedDimension
  0
DIMENSION
  5
148
100
AcDbEntity
  8
Medidas
  6
ByLayer
 62
  256
370
   -1
100
AcDbDimension
  2
*D17
 10
45
 20
119.5
 30
0
 11
43.125
 21
115.25
 31
0
 70
   32
 71
    5
  3
Standard
 53
0
210
0
220
0
230
1
100
AcDbAlignedDimension
 13
51
 23
111
 33
0
 14
0
 24
119.5
 34
0
 50
90
100
AcDbRotatedDimension
  0
DIMENSION
  5
149
100
AcDbEntity
  8
Medidas
  6
ByLayer
 62
  256
370
   -1
100
AcDbDimension
  2
*D18
 10
146.1
 20
32
 30
0
 11
144.05
 21
33.875
 31
0
 70
   32
 71
    5
  3
Standard
 53
0
210
0
220
0
230
1
100
AcDbAlignedDimension
 13
142
 23
38
 33
0
 14
146.1
 24
0
 34
0
100
AcDbRotatedDimension
  0
DIMENSION
  5
14A
100
AcDbEntity
  8
Medidas
  6
ByLayer
 62
  256
370
   -1
100
AcDbDimension
  2
*D19
 10
154
 20
119.5
 30
0
 11
152.125
 21
95.3
 31
0
 70
   32
 71
    5
  3
Standard
 53
0
210
0
220
0
230
1
100
AcDbAlignedDimension
 13
142.1
 23
71.09999999999999
 33
0
 14
146.1
 24
119.5
 34
0
 50
90
100
AcDbRotatedDimension
  0
DIMENSION
  5
14B
100
AcDbEntity
  8
Medidas
  6
ByLayer
 62
  256
370
   -1
100
AcDbDimension
  2
*D20
 10
154
 20
-9.674390195196778e-016
 30
0
 11
152.125
 21
26.75
 31
0
 70
   32
 71
    5
  3
Standard
 53
0
210
0
220
0
230
1
100
AcDbAlignedDimension
 13
142.1
 23
53.5
 33
0
 14
146.1
 24
0
 34
0
 50
90
100
AcDbRotatedDimension
  0
DIMENSION
  5
14C
100
AcDbEntity
  8
Medidas
  6
ByLayer
 62
  256
370
   -1
100
AcDbDimension
  2
*D21
 10
-2.021278110164726e-015
 20
17
 30
0
 11
6.5
 21
18.875
 31
0
 70
   32
 71
    5
  3
Standard
 53
0
210
0
220
0
230
1
100
AcDbAlignedDimension
 13
13
 23
6.35
 33
0
 14
-1.77635683940025e-015
 24
21
 34
0
100
AcDbRotatedDimension
  0
MTEXT
  5
14D
100
AcDbEntity
  8
Ffab
  6
ByLayer
 62
  256
370
   -1
100
AcDbMText
 10
25
 20
10
 30
0
 40
2
 41
11.33333333333346
 71
    1
 72
    1
  1
TECLADO
  7
standard
210
0
220
0
230
1
 50
0
 73
    2
 44
1
  0
MTEXT
  5
14E
100
AcDbEntity
  8
Ffab
  6
ByLayer
 62
  256
370
   -1
100
AcDbMText
 10
52
 20
115
 30
0
 40
2
 41
7.111111111111235
 71
    1
 72
    1
  1
VIDEO
  7
standard
210
0
220
0
230
1
 50
0
 73
    2
 44
1
  0
MTEXT
  5
14F
100
AcDbEntity
  8
Ffab
  6
ByLayer
 62
  256
370
   -1
100
AcDbMText
 10
101
 20
123
 30
0
 40
2
 41
4.666666666666666
 71
    2
 72
    1
  1
EAR
  7
standard
210
0
220
0
230
1
 50
0
 73
    2
 44
1
  0
MTEXT
  5
150
100
AcDbEntity
  8
Ffab
  6
ByLayer
 62
  256
370
   -1
100
AcDbMText
 10
87
 20
123
 30
0
 40
2
 41
3.555555555555555
 71
    2
 72
    1
  1
MIC
  7
standard
210
0
220
0
230
1
 50
0
 73
    2
 44
1
  0
LINE
  5
151
100
AcDbEntity
  8
Ffab
  6
ByLayer
 62
  256
370
   -1
100
AcDbLine
 10
136.1
 20
119.5
 11
136.1
 21
111.5
  0
DIMENSION
  5
152
100
AcDbEntity
  8
Medidas
  6
ByLayer
 62
  256
370
   -1
100
AcDbDimension
  2
*D22
 10
146.1
 20
110
 30
0
 11
141.1
 21
111.875
 31
0
 70
   32
 71
    5
  3
Standard
 53
0
210
0
220
0
230
1
100
AcDbAlignedDimension
 13
136.1
 23
111.5
 33
0
 14
146.1
 24
119.5
 34
0
100
AcDbRotatedDimension
  0
MTEXT
  5
153
100
AcDbEntity
  8
Ffab
  6
ByLayer
 62
  256
370
   -1
100
AcDbMText
 10
136
 20
123
 30
0
 40
2
 41
3.111111111111111
 71
    2
 72
    1
  1
TV
  7
standard
210
0
220
0
230
1
 50
0
 73
    2
 44
1
  0
MTEXT
  5
154
100
AcDbEntity
  8
Ffab
  6
ByLayer
 62
  256
370
   -1
100
AcDbMText
 10
140
 20
66
 30
0
 40
2
 41
7.777777777777778
 71
    6
 72
    1
  1
FONTE
  7
standard
210
0
220
0
230
1
 50
0
 73
    2
 44
1
  0
MTEXT
  5
155
100
AcDbEntity
  8
Ffab
  6
ByLayer
 62
  256
370
   -1
100
AcDbMText
 10
140
 20
45
 30
0
 40
2
 41
11.99999957599582
 71
    6
 72
    1
  1
JOYSTICK
  7
standard
210
0
220
0
230
1
 50
0
 73
    2
 44
1
  0
MTEXT
  5
156
100
AcDbEntity
  8
Ffab
  6
ByLayer
 62
  256
370
   -1
100
AcDbMText
 10
138
 20
40
 30
0
 40
2
 41
7.777778806352391
 71
    6
 72
    1
  1
6pinos\P0.125"
  7
standard
210
0
220
0
230
1
 50
0
 73
    2
 44
1
  0
MTEXT
  5
157
100
AcDbEntity
  8
Ffab
  6
ByLayer
 62
  256
370
   -1
100
AcDbMText
 10
44
 20
8
 30
0
 40
2
 41
10.3888899174635
 71
    8
 72
    1
  1
15 pinos\P0.1"
  7
standard
210
0
220
0
230
1
 50
0
 73
    2
 44
1
  0
MTEXT
  5
158
100
AcDbEntity
  8
Ffab
  6
ByLayer
 62
  256
370
   -1
100
AcDbMText
 10
57
 20
109
 30
0
 40
2
 41
9.500001028574488
 71
    2
 72
    1
  1
4 pinos\P0.1"
  7
standard
210
0
220
0
230
1
 50
0
 73
    2
 44
1
  0
MTEXT
  5
159
100
AcDbEntity
  8
Ffab
  6
ByLayer
 62
  256
370
   -1
100
AcDbMText
 10
140
 20
61
 30
0
 40
2
 41
9.277778806352391
 71
    6
 72
    1
  1
5 pinos\P0.1"
  7
standard
210
0
220
0
230
1
 50
0
 73
    2
 44
1
  0
DIMENSION
  5
15A
100
AcDbEntity
  8
Medidas
  6
ByLayer
 62
  256
370
   -1
100
AcDbDimension
  2
*D23
 10
10
 20
87
 30
0
 11
8.125
 21
85.75
 31
0
 70
   32
 71
    5
  3
Standard
 53
0
210
0
220
0
230
1
100
AcDbAlignedDimension
 13
0
 23
84.5
 33
0
 14
-1.989985324961363e-015
 24
87
 34
0
 50
90
100
AcDbRotatedDimension
  0
MTEXT
  5
15B
100
AcDbEntity
  8
Ffab
  6
ByLayer
 62
  256
370
   -1
100
AcDbMText
 10
2
 20
80
 30
0
 40
2
 41
22.11111213968585
 71
    1
 72
    1
  1
EDGE 2x25 pinos\P0.1 "\P
  7
standard
210
0
220
0
230
1
 50
0
 73
    2
 44
1
  0
LINE
  5
15C
100
AcDbEntity
  8
Ffab
  6
ByLayer
 62
  256
370
   -1
100
AcDbLine
 10
0
 20
81.95999999999999
 11
-8
 21
81.95999999999999
  0
LINE
  5
15D
100
AcDbEntity
  8
Ffab
  6
ByLayer
 62
  256
370
   -1
100
AcDbLine
 10
0
 20
79.41999999999999
 11
-8
 21
79.41999999999999
  0
LINE
  5
15E
100
AcDbEntity
  8
Ffab
  6
ByLayer
 62
  256
370
   -1
100
AcDbLine
 10
0
 20
76.87999999999998
 11
-8
 21
76.87999999999998
  0
LINE
  5
15F
100
AcDbEntity
  8
Ffab
  6
ByLayer
 62
  256
370
   -1
100
AcDbLine
 10
0
 20
74.33999999999997
 11
-8
 21
74.33999999999997
  0
LINE
  5
160
100
AcDbEntity
  8
Ffab
  6
ByLayer
 62
  256
370
   -1
100
AcDbLine
 10
0
 20
71.79999999999997
 11
-8
 21
71.79999999999997
  0
LINE
  5
161
100
AcDbEntity
  8
Ffab
  6
ByLayer
 62
  256
370
   -1
100
AcDbLine
 10
0
 20
69.25999999999996
 11
-8
 21
69.25999999999996
  0
LINE
  5
162
100
AcDbEntity
  8
Ffab
  6
ByLayer
 62
  256
370
   -1
100
AcDbLine
 10
0
 20
66.71999999999996
 11
-8
 21
66.71999999999996
  0
LINE
  5
163
100
AcDbEntity
  8
Ffab
  6
ByLayer
 62
  256
370
   -1
100
AcDbLine
 10
0
 20
64.17999999999995
 11
-8
 21
64.17999999999995
  0
LINE
  5
164
100
AcDbEntity
  8
Ffab
  6
ByLayer
 62
  256
370
   -1
100
AcDbLine
 10
0
 20
61.63999999999994
 11
-8
 21
61.63999999999994
  0
LINE
  5
165
100
AcDbEntity
  8
Ffab
  6
ByLayer
 62
  256
370
   -1
100
AcDbLine
 10
0
 20
59.09999999999994
 11
-8
 21
59.09999999999994
  0
LINE
  5
166
100
AcDbEntity
  8
Ffab
  6
ByLayer
 62
  256
370
   -1
100
AcDbLine
 10
0
 20
56.55999999999993
 11
-8
 21
56.55999999999993
  0
LINE
  5
167
100
AcDbEntity
  8
Ffab
  6
ByLayer
 62
  256
370
   -1
100
AcDbLine
 10
0
 20
54.01999999999992
 11
-8
 21
54.01999999999992
  0
LINE
  5
168
100
AcDbEntity
  8
Ffab
  6
ByLayer
 62
  256
370
   -1
100
AcDbLine
 10
0
 20
51.47999999999992
 11
-8
 21
51.47999999999992
  0
LINE
  5
169
100
AcDbEntity
  8
Ffab
  6
ByLayer
 62
  256
370
   -1
100
AcDbLine
 10
0
 20
48.93999999999991
 11
-8
 21
48.93999999999991
  0
LINE
  5
16A
100
AcDbEntity
  8
Ffab
  6
ByLayer
 62
  256
370
   -1
100
AcDbLine
 10
0
 20
46.39999999999991
 11
-8
 21
46.39999999999991
  0
LINE
  5
16B
100
AcDbEntity
  8
Ffab
  6
ByLayer
 62
  256
370
   -1
100
AcDbLine
 10
0
 20
43.8599999999999
 11
-8
 21
43.8599999999999
  0
LINE
  5
16C
100
AcDbEntity
  8
Ffab
  6
ByLayer
 62
  256
370
   -1
100
AcDbLine
 10
0
 20
41.31999999999989
 11
-8
 21
41.31999999999989
  0
LINE
  5
16D
100
AcDbEntity
  8
Ffab
  6
ByLayer
 62
  256
370
   -1
100
AcDbLine
 10
0
 20
38.77999999999989
 11
-8
 21
38.77999999999989
  0
LINE
  5
16E
100
AcDbEntity
  8
Ffab
  6
ByLayer
 62
  256
370
   -1
100
AcDbLine
 10
0
 20
36.23999999999988
 11
-8
 21
36.23999999999988
  0
LINE
  5
16F
100
AcDbEntity
  8
Ffab
  6
ByLayer
 62
  256
370
   -1
100
AcDbLine
 10
0
 20
33.69999999999987
 11
-8
 21
33.69999999999987
  0
LINE
  5
170
100
AcDbEntity
  8
Ffab
  6
ByLayer
 62
  256
370
   -1
100
AcDbLine
 10
0
 20
31.15999999999987
 11
-8
 21
31.15999999999987
  0
LINE
  5
171
100
AcDbEntity
  8
Ffab
  6
ByLayer
 62
  256
370
   -1
100
AcDbLine
 10
0
 20
28.61999999999986
 11
-8
 21
28.61999999999986
  0
LINE
  5
172
100
AcDbEntity
  8
Ffab
  6
ByLayer
 62
  256
370
   -1
100
AcDbLine
 10
0
 20
26.07999999999986
 11
-8
 21
26.07999999999986
  0
LINE
  5
173
100
AcDbEntity
  8
Ffab
  6
ByLayer
 62
  256
370
   -1
100
AcDbLine
 10
0
 20
23.53999999999985
 11
-8
 21
23.53999999999985
  0
DIMENSION
  5
174
100
AcDbEntity
  8
Medidas
  6
ByLayer
 62
  256
370
   -1
100
AcDbDimension
  2
*D24
 10
3.061515884555943e-016
 20
92
 30
0
 11
-4.5
 21
93.875
 31
0
 70
   32
 71
    5
  3
Standard
 53
0
210
0
220
0
230
1
100
AcDbAlignedDimension
 13
-9
 23
87
 33
0
 14
0
 24
87
 34
0
100
AcDbRotatedDimension
  0
DIMENSION
  5
175
100
AcDbEntity
  8
Medidas
  6
ByLayer
 62
  256
370
   -1
100
AcDbDimension
  2
*D25
 10
58
 20
-7.753722585204553e-016
 30
0
 11
56.125
 21
3.174999999999999
 31
0
 70
   32
 71
    5
  3
Standard
 53
0
210
0
220
0
230
1
100
AcDbAlignedDimension
 13
48.56
 23
6.35
 33
0
 14
51.66839592085834
 24
0
 34
0
 50
90
100
AcDbRotatedDimension
  0
LINE
  5
176
100
AcDbEntity
  8
0
  6
ByLayer
 62
  256
370
   -1
100
AcDbLine
 10
0
 20
0
 11
146.1
 21
0
  0
LINE
  5
177
100
AcDbEntity
  8
0
  6
ByLayer
 62
  256
370
   -1
100
AcDbLine
 10
146.1
 20
0
 11
146.1
 21
119.5
  0
LINE
  5
178
100
AcDbEntity
  8
0
  6
ByLayer
 62
  256
370
   -1
100
AcDbLine
 10
0
 20
119.5
 11
146.1
 21
119.5
  0
LINE
  5
179
100
AcDbEntity
  8
0
  6
ByLayer
 62
  256
370
   -1
100
AcDbLine
 10
0
 20
119.5
 11
-1.989985324961363e-015
 21
87
  0
LINE
  5
17A
100
AcDbEntity
  8
0
  6
ByLayer
 62
  256
370
   -1
100
AcDbLine
 10
-1.989985324961363e-015
 20
87
 11
-9.000000000000002
 21
87
  0
LINE
  5
17B
100
AcDbEntity
  8
0
  6
ByLayer
 62
  256
370
   -1
100
AcDbLine
 10
-9.000000000000002
 20
87
 11
-9.000000000000002
 21
21
  0
LINE
  5
17C
100
AcDbEntity
  8
0
  6
ByLayer
 62
  256
370
   -1
100
AcDbLine
 10
-9.000000000000002
 20
21
 11
-1.77635683940025e-015
 21
21
  0
LINE
  5
17D
100
AcDbEntity
  8
0
  6
ByLayer
 62
  256
370
   -1
100
AcDbLine
 10
-1.77635683940025e-015
 20
21
 11
0
 21
0
  0
CIRCLE
  5
17E
100
AcDbEntity
  8
0
  6
ByLayer
 62
  256
370
   -1
100
AcDbCircle
 10
5
 20
5
 40
1.5
  0
CIRCLE
  5
17F
100
AcDbEntity
  8
0
  6
ByLayer
 62
  256
370
   -1
100
AcDbCircle
 10
141.1
 20
5
 40
1.5
  0
CIRCLE
  5
180
100
AcDbEntity
  8
0
  6
ByLayer
 62
  256
370
   -1
100
AcDbCircle
 10
111.45
 20
114.5
 40
1.5
  0
CIRCLE
  5
181
100
AcDbEntity
  8
0
  6
ByLayer
 62
  256
370
   -1
100
AcDbCircle
 10
5
 20
114.5
 40
1.5
  0
MTEXT
  5
182
100
AcDbEntity
  8
0
  6
ByLayer
 62
  256
370
   -1
100
AcDbMText
 10
0
 20
-20
 30
0
 40
5
 41
44.30555555555657
 71
    1
 72
    1
  1
Danjovic 2018
  7
STANDARD
210
0
220
0
230
1
 50
0
 73
    2
 44
1
  0
MTEXT
  5
183
100
AcDbEntity
  8
0
  6
ByLayer
 62
  256
370
   -1
100
AcDbMText
 10
70
 20
60
 30
0
 40
5
 41
44.30555449554528
 71
    5
 72
    1
  1
Placa CP200S\PCompacta
  7
STANDARD
210
0
220
0
230
1
 50
0
 73
    2
 44
1
  0
ENDSEC
  0
SECTION
  2
OBJECTS
  0
DICTIONARY
  5
C
330
0
100
AcDbDictionary
281
    1
  3
ACAD_GROUP
350
D
  0
DICTIONARY
  5
D
330
C
100
AcDbDictionary
281
    1
  0
ENDSEC
  0
EOF
